<?xml version="1.0" encoding="UTF-8" standalone="no"?>
<!DOCTYPE svg PUBLIC "-//W3C//DTD SVG 1.1//EN" "http://www.w3.org/Graphics/SVG/1.1/DTD/svg11.dtd">
<svg width="100%" height="100%" viewBox="0 0 407 573" version="1.1" xmlns="http://www.w3.org/2000/svg" xmlns:xlink="http://www.w3.org/1999/xlink" xml:space="preserve" xmlns:serif="http://www.serif.com/" style="fill-rule:evenodd;clip-rule:evenodd;stroke-linecap:round;stroke-linejoin:round;stroke-miterlimit:1.5;">
    <g transform="matrix(1,0,0,1,-1576.98,-379.771)">
        <g>
            <g transform="matrix(-1.2194,0,0,-1.2194,4729.76,1766.42)">
                <path d="M2389.91,830.848C2388.44,829.033 2396.83,823.6 2399.16,822.783C2400.95,822.156 2402.4,825.911 2403.89,825.949C2405.37,825.988 2406.49,822.394 2408.07,823.017C2410.53,823.982 2418.63,829.963 2418.61,831.74C2418.6,833.517 2411.58,833.789 2407.98,833.677C2403.19,833.528 2391.38,832.664 2389.91,830.848Z" style="fill:rgb(127,127,127);"/>
            </g>
            <g transform="matrix(1.72287,0,0,1.72287,-2349.01,-677.983)">
                <path d="M2398.64,821.037C2398.64,821.037 2396.2,820.563 2392.89,820.088C2391.13,819.834 2389.12,819.579 2387.11,819.396C2384.63,819.17 2382.26,819.417 2380.16,819.316C2379.6,819.289 2379.05,819.236 2378.54,819.137C2378.15,819.061 2377.77,819.319 2377.69,819.712C2377.62,820.105 2377.87,820.486 2378.27,820.562C2378.85,820.673 2379.45,820.735 2380.09,820.766C2382.17,820.866 2384.53,820.617 2386.98,820.841C2388.97,821.022 2390.95,821.273 2392.69,821.524C2395.95,821.994 2398.36,822.461 2398.36,822.461C2398.76,822.538 2399.14,822.28 2399.21,821.887C2399.29,821.494 2399.03,821.113 2398.64,821.037Z" style="fill:rgb(127,127,127);"/>
            </g>
            <g transform="matrix(-1.72287,0,0,1.72287,5950.73,-677.633)">
                <path d="M2398.5,821.749C2398.5,821.749 2392.68,820.714 2387.91,820.596" style="fill:none;stroke:rgb(127,127,127);stroke-width:1.45px;"/>
            </g>
            <g transform="matrix(-2.05584,0,0,2.05584,3740.24,-787.58)">
                <path d="M1003.45,676.923C996.335,670.581 987.782,666.201 970.897,675.767C969.991,676.28 967.943,674.569 966.987,675.165" style="fill:none;stroke:rgb(127,127,127);stroke-width:1.22px;"/>
            </g>
            <g transform="matrix(2.44747,0,0,1.84749,-532.564,-672.291)">
                <path d="M997.167,671.215C992.254,678.607 986.675,670.534 974.004,678.228" style="fill:none;stroke:rgb(127,127,127);stroke-width:1.73px;"/>
            </g>
            <g transform="matrix(-2.44747,0,0,1.84749,4139.6,-672.291)">
                <path d="M997.167,671.215C992.254,678.607 986.675,670.534 974.004,678.228" style="fill:none;stroke:rgb(127,127,127);stroke-width:1.73px;"/>
            </g>
            <g transform="matrix(1.72287,0,0,1.72287,-2338.86,-673.272)">
                <path d="M2381.99,818.068C2381.99,818.068 2385.02,811.492 2388.08,811.123C2391.41,810.721 2397.67,815.479 2402,815.657C2406.18,815.828 2410.86,811.672 2414.06,812.191C2417.26,812.71 2421.23,818.774 2421.23,818.774L2400.71,822.369L2381.99,818.068Z" style="fill:rgb(127,127,127);"/>
            </g>
            <g transform="matrix(-2.05584,0,0,2.05584,3902.42,-787.58)">
                <path d="M1003.18,673.774C1002.36,673.327 1001.83,675.942 1000.23,675.165C993.802,672.045 980.552,667.532 968.104,677.43" style="fill:none;stroke:rgb(127,127,127);stroke-width:1.22px;"/>
            </g>
            <g transform="matrix(2.58645,0,0,2.58645,-605.118,-1164.08)">
                <circle cx="898.004" cy="684.429" r="5.292" style="fill:rgb(127,127,127);"/>
            </g>
            <g transform="matrix(2.58645,0,0,2.58645,-442.935,-1164.08)">
                <circle cx="898.004" cy="684.429" r="5.292" style="fill:rgb(127,127,127);"/>
            </g>
            <g transform="matrix(0.540409,0,0,0.540409,1227.65,230.577)">
                <circle cx="898.004" cy="684.429" r="5.292" style="fill:white;"/>
            </g>
            <g transform="matrix(0.540409,0,0,0.540409,1388.32,230.577)">
                <circle cx="898.004" cy="684.429" r="5.292" style="fill:white;"/>
            </g>
            <g transform="matrix(2.06078,0,0,2.06078,-3701.05,-951.252)">
                <path d="M2667.99,751.624C2667.99,751.624 2669,759.87 2669.41,764.002C2669.84,768.205 2669.36,772.712 2670.54,776.841C2672.03,782.011 2680.87,792.118 2678.34,795.02C2672.43,801.767 2663.15,796.745 2665.89,796.215" style="fill:none;stroke:rgb(127,127,127);stroke-width:1.21px;"/>
            </g>
            <g transform="matrix(1.95243,0,0,1.95243,-3404.14,-853.946)">
                <path d="M2654.96,784.897C2654.96,784.897 2651.92,785.189 2656.17,788.994" style="fill:none;stroke:rgb(127,127,127);stroke-width:1.17px;"/>
            </g>
            <g transform="matrix(1.83695,0,0,1.83695,-3764.36,215.944)">
                <path d="M3014.55,95.718C3038.72,76.682 3108.55,107.374 3118.01,140.415" style="fill:none;stroke:rgb(127,127,127);stroke-width:1.36px;"/>
            </g>
            <g transform="matrix(1.83695,0,0,1.83695,-3621.73,265.435)">
                <path d="M2844.29,123.781C2844.29,123.736 2844.36,129.494 2841.25,133.57C2838.95,136.575 2837.79,142.735 2838.29,144.825" style="fill:none;stroke:rgb(127,127,127);stroke-width:1.36px;"/>
            </g>
            <g transform="matrix(-1.83695,0,0,1.83695,6867.6,189.608)">
                <path d="M2785.78,146.929C2790.29,161.256 2804.16,172.945 2811.34,181.051C2826.96,198.695 2836.28,206.678 2836.61,242.705" style="fill:none;stroke:rgb(127,127,127);stroke-width:1.36px;"/>
            </g>
            <g transform="matrix(2.70871,0,0,2.70871,-1269.67,-4190.08)">
                <path d="M1083.14,1814.3C1083.14,1814.3 1086.89,1819.18 1093.94,1825.41" style="fill:none;stroke:rgb(127,127,127);stroke-width:0.92px;"/>
            </g>
            <g transform="matrix(2.70871,0,0,2.70871,-1194.24,-4457.63)">
                <path d="M1086.89,1810.94C1086.89,1810.94 1087.29,1826.93 1094.5,1834.23C1103.66,1843.5 1121.4,1847.39 1128.1,1845.86" style="fill:none;stroke:rgb(127,127,127);stroke-width:0.92px;"/>
            </g>
            <g transform="matrix(2.70871,0,0,2.70871,-1194.24,-4457.63)">
                <path d="M1145.03,1820C1145.03,1820 1144.95,1839.42 1148.18,1849.16C1150.9,1857.39 1153.67,1867.39 1160.37,1865.86" style="fill:none;stroke:rgb(127,127,127);stroke-width:0.92px;"/>
            </g>
            <g transform="matrix(2.70871,0,0,2.70871,-1138.44,-4454.95)">
                <path d="M1082.43,1814.32C1082.43,1814.32 1085.98,1823.81 1093.19,1831.1C1098.81,1836.79 1111.91,1846.14 1120.43,1843.82C1124.64,1842.67 1114.4,1800.53 1120.43,1808.46" style="fill:none;stroke:rgb(127,127,127);stroke-width:0.92px;"/>
            </g>
            <g transform="matrix(2.70871,0,0,2.70871,-1092.71,-4454.95)">
                <path d="M1103.55,1808.46C1109.65,1824.46 1111.79,1830.92 1122.46,1836.04" style="fill:none;stroke:rgb(127,127,127);stroke-width:0.92px;"/>
            </g>
            <g transform="matrix(2.70871,0,0,2.70871,-1269.67,-4190.08)">
                <path d="M1100.83,1831.05C1107.17,1835.84 1115.12,1840.8 1124.5,1844.68C1124.5,1844.68 1127.93,1845.77 1129.57,1845.87C1131.17,1845.96 1134.34,1845.27 1134.34,1845.27C1134.34,1845.27 1175.54,1833.53 1184.08,1767.21" style="fill:none;stroke:rgb(127,127,127);stroke-width:0.92px;"/>
            </g>
            <g transform="matrix(1.83695,0,0,1.83695,-3990.05,155.534)">
                <path d="M3044.91,178.006C3044.61,174.528 3044.88,171.638 3046.17,167.246C3053.57,141.897 3098.01,110.535 3128.52,128.477C3131.79,130.402 3135.08,135.781 3135.13,141.112" style="fill:none;stroke:rgb(127,127,127);stroke-width:1.36px;"/>
            </g>
            <g transform="matrix(1.83695,0,0,1.83695,-3554.53,288.876)">
                <path d="M2836.97,198.505C2836.56,207.421 2841.89,224.49 2840.78,240.039C2839.55,257.4 2833.56,258.491 2832.12,269.917" style="fill:none;stroke:rgb(127,127,127);stroke-width:1.36px;"/>
            </g>
            <g transform="matrix(1.83695,0,0,1.83695,-3621.73,265.435)">
                <path d="M3041.93,120.582C3044.82,127.12 3040.28,135.054 3043.62,150.408" style="fill:none;stroke:rgb(127,127,127);stroke-width:1.36px;"/>
            </g>
            <g transform="matrix(1.83695,0,0,1.83695,-3621.73,265.435)">
                <path d="M2878.03,87.373C2878.03,87.373 2859.36,100.814 2856.46,111.369" style="fill:none;stroke:rgb(127,127,127);stroke-width:1.36px;"/>
            </g>
            <g transform="matrix(1.83695,0,0,1.83695,-3532.02,54.9162)">
                <path d="M2996.13,272.011C2996.13,272.011 2998.55,280.309 2999.43,284.622C3001.05,292.634 2996.44,293.771 2993.09,297.839" style="fill:none;stroke:rgb(127,127,127);stroke-width:1.36px;"/>
            </g>
            <g transform="matrix(-1.79868,-0.372993,-0.372993,1.79868,7088.99,1168.23)">
                <path d="M2999.34,274.193C2999.34,274.193 3000.3,281.666 3001.17,285.979C3002.8,293.991 2996.42,293.786 2992.48,296.731" style="fill:none;stroke:rgb(127,127,127);stroke-width:1.36px;"/>
            </g>
            <g transform="matrix(1.83695,0,0,1.83695,-3538.15,102.362)">
                <path d="M2994.87,275.423C2994.87,275.423 2998.89,281.784 2999.76,286.097C3001.39,294.109 2996.02,292.047 2992.67,296.115" style="fill:none;stroke:rgb(127,127,127);stroke-width:1.36px;"/>
            </g>
            <g transform="matrix(-1.79868,-0.372993,-0.372993,1.79868,7085.35,1215.93)">
                <path d="M2995.79,270.915C2995.79,270.915 2998.89,281.784 2999.76,286.097C3001.39,294.109 2996.02,292.047 2992.67,296.115" style="fill:none;stroke:rgb(127,127,127);stroke-width:1.36px;"/>
            </g>
            <g transform="matrix(1.53392,1.01069,-1.01069,1.53392,-2378.65,-2743.9)">
                <path d="M2996.13,272.011C2996.13,272.011 2998.55,280.309 2999.43,284.622C3001.05,292.634 2997.11,295.373 2993.76,299.441" style="fill:none;stroke:rgb(127,127,127);stroke-width:1.36px;"/>
            </g>
            <g transform="matrix(-1.70718,0.678169,0.678169,1.70718,6527.94,-1806.47)">
                <path d="M2996.13,272.011C2996.13,272.011 3003.19,280.873 3004.26,281.96C3009.7,287.472 3001.71,290.318 2998.37,294.386" style="fill:none;stroke:rgb(127,127,127);stroke-width:1.36px;"/>
            </g>
            <g transform="matrix(1.83695,0,0,1.83695,-3546.73,149.808)">
                <path d="M2995.52,274.624C2995.52,274.624 2995.02,281.244 2995.9,285.557C2997.53,293.569 2992.26,296.571 2988.09,300.321" style="fill:none;stroke:rgb(127,127,127);stroke-width:1.36px;"/>
            </g>
            <g transform="matrix(-1.79868,-0.372993,-0.372993,1.79868,7084.12,1264.13)">
                <path d="M2995.52,274.624C2995.52,274.624 2994.86,281.478 2995.73,285.791C2997.36,293.803 2994.14,292.037 2989.97,295.788" style="fill:none;stroke:rgb(127,127,127);stroke-width:1.36px;"/>
            </g>
            <g transform="matrix(1.83695,0,0,1.83695,-3621.73,265.435)">
                <path d="M2877.27,304.406C2877.52,303.067 2887.95,295.669 2888.62,293.74C2889.88,290.113 2891.08,281.274 2889.75,263.407" style="fill:none;stroke:rgb(127,127,127);stroke-width:1.36px;"/>
            </g>
            <g transform="matrix(-1.83695,0,0,1.83695,7181.02,274.539)">
                <path d="M2884.72,305.447C2884.72,305.447 2900.2,303.588 2891.76,265.456" style="fill:none;stroke:rgb(127,127,127);stroke-width:1.36px;"/>
            </g>
            <g transform="matrix(1.83695,0,0,1.83695,-2666.62,39.0722)">
                <path d="M2310.88,452.464C2310.3,452.821 2353.32,430.897 2354.97,429.35C2357.61,426.879 2360.61,423.574 2361.35,426.003C2363.23,432.167 2355.44,457.508 2364.75,468.043C2375.13,479.79 2403.97,495.046 2423.64,496.484C2443.3,497.921 2473.99,486.682 2482.75,476.668C2491.5,466.654 2476.15,436.398 2476.15,436.398L2476.65,433.845C2476.65,433.845 2490.34,438.662 2495.68,440.787C2500.09,442.545 2504.25,444.909 2508.7,446.599C2514.53,448.818 2525.29,452.339 2530.67,454.1" style="fill:none;stroke:rgb(127,127,127);stroke-width:1.47px;"/>
            </g>
            <g transform="matrix(1.83695,0,0,1.83695,-3656.84,580.329)">
                <path d="M2877.88,84.496C2877.88,84.496 2878.06,94.508 2879.1,105.163C2879.79,112.252 2881.93,119.884 2880.77,124.101" style="fill:none;stroke:rgb(127,127,127);stroke-width:1.36px;"/>
            </g>
            <g transform="matrix(1.83695,0,0,1.83695,-3656.84,580.329)">
                <path d="M2872.71,111.673C2869.62,108.431 2865.02,97.055 2866.53,87.561" style="fill:none;stroke:rgb(127,127,127);stroke-width:1.36px;"/>
            </g>
            <g transform="matrix(1.83695,0,0,1.83695,-3382.43,580.329)">
                <path d="M2879.22,91.109C2879.22,91.109 2884.48,109.029 2881.58,119.584" style="fill:none;stroke:rgb(127,127,127);stroke-width:1.36px;"/>
            </g>
            <g transform="matrix(1.83695,0,0,1.83695,-3382.43,580.329)">
                <path d="M2869.61,126.547C2869.61,126.547 2867.54,120.848 2867.79,115.147C2867.98,110.571 2870.57,106.452 2870.21,101.824" style="fill:none;stroke:rgb(127,127,127);stroke-width:1.36px;"/>
            </g>
        </g>
    </g>
</svg>
