<?xml version="1.0" encoding="UTF-8" standalone="no"?>
<!DOCTYPE svg PUBLIC "-//W3C//DTD SVG 1.1//EN" "http://www.w3.org/Graphics/SVG/1.1/DTD/svg11.dtd">
<svg width="100%" height="100%" viewBox="0 0 407 585" version="1.1" xmlns="http://www.w3.org/2000/svg" xmlns:xlink="http://www.w3.org/1999/xlink" xml:space="preserve" xmlns:serif="http://www.serif.com/" style="fill-rule:evenodd;clip-rule:evenodd;stroke-linecap:round;stroke-linejoin:round;stroke-miterlimit:1.5;">
    <g transform="matrix(1,0,0,1,-899.969,-907.989)">
        <g transform="matrix(1.72287,0,0,1.72287,-3026.02,-137.919)">
            <path d="M2398.58,821.028C2398.58,821.028 2393.34,820.468 2388.26,819.501C2385.79,819.03 2383.35,818.465 2381.6,817.817C2381.22,817.678 2380.81,817.87 2380.67,818.246C2380.53,818.621 2380.72,819.039 2381.1,819.178C2382.91,819.848 2385.43,820.439 2387.99,820.927C2393.12,821.904 2398.42,822.471 2398.42,822.471C2398.82,822.513 2399.18,822.224 2399.22,821.826C2399.26,821.428 2398.98,821.07 2398.58,821.028Z" style="fill:rgb(127,127,127);"/>
        </g>
        <g transform="matrix(-1.72287,0,0,1.72287,5273.72,-137.569)">
            <path d="M2398.5,821.749C2398.5,821.749 2387.59,820.257 2382.83,820.138" style="fill:none;stroke:rgb(127,127,127);stroke-width:1.45px;"/>
        </g>
        <g transform="matrix(-2.05584,0,0,2.05584,3063.22,-247.516)">
            <path d="M1003.45,676.923C1003.71,675.296 986.194,673.046 982.988,672.519C973.166,670.904 967.707,674.716 966.987,675.165" style="fill:none;stroke:rgb(127,127,127);stroke-width:1.22px;"/>
        </g>
        <g transform="matrix(-2.05584,0,0,2.05584,3223.79,-247.516)">
            <path d="M1003.45,676.923C1003.79,674.812 1000.31,672.49 995.363,672.122C984.809,671.338 967.637,674.759 966.987,675.165" style="fill:none;stroke:rgb(127,127,127);stroke-width:1.22px;"/>
        </g>
        <g transform="matrix(-2.44747,0,0,1.84749,3462.59,-132.226)">
            <path d="M994.85,675.682C992.434,678.848 987.31,675.833 983.844,675.682C981.205,675.567 978.501,675.497 974.004,678.228" style="fill:none;stroke:rgb(127,127,127);stroke-width:1.15px;"/>
        </g>
        <g transform="matrix(2.44747,0,0,1.84749,-1222.1,-132.226)">
            <path d="M994.85,675.682C992.434,678.848 987.31,675.833 983.844,675.682C981.205,675.567 978.501,675.497 974.004,678.228" style="fill:none;stroke:rgb(127,127,127);stroke-width:1.15px;"/>
        </g>
        <g transform="matrix(1.72287,0,0,1.72287,-3015.87,-133.207)">
            <path d="M2382.13,817.922C2382.13,817.922 2385.78,814.319 2388.12,814.254C2391.35,814.166 2397.05,817.285 2401.52,817.388C2405.99,817.492 2411.7,814.678 2414.93,814.874C2417.26,815.016 2420.9,818.565 2420.9,818.565L2401.21,822.072L2382.13,817.922Z" style="fill:rgb(127,127,127);"/>
        </g>
        <g transform="matrix(2.58645,0,0,2.58645,-1273.95,-622.549)">
            <circle cx="898.004" cy="684.429" r="5.292" style="fill:rgb(127,127,127);"/>
        </g>
        <g transform="matrix(2.58645,0,0,2.58645,-1120.71,-620.878)">
            <circle cx="898.004" cy="684.429" r="5.292" style="fill:rgb(127,127,127);"/>
        </g>
        <g transform="matrix(0.540409,0,0,0.540409,558.819,772.103)">
            <circle cx="898.004" cy="684.429" r="5.292" style="fill:white;"/>
        </g>
        <g transform="matrix(0.540409,0,0,0.540409,710.544,773.774)">
            <circle cx="898.004" cy="684.429" r="5.292" style="fill:white;"/>
        </g>
        <g transform="matrix(2.06078,0,0,2.06078,-4372.72,-406.894)">
            <path d="M2667.61,753.052C2667.61,753.052 2667.35,764.361 2667.96,769.177C2668.52,773.541 2670.21,777.684 2671.28,781.951C2672.36,786.258 2674.95,793.639 2674.46,795.021C2673.62,797.408 2665.89,796.215 2665.89,796.215" style="fill:none;stroke:rgb(127,127,127);stroke-width:1.21px;"/>
        </g>
        <g transform="matrix(1.95243,0,0,1.95243,-4081.15,-309.547)">
            <path d="M2653.17,786.507C2653.4,788.337 2653.83,789.006 2657.17,789.469" style="fill:none;stroke:rgb(127,127,127);stroke-width:1.17px;"/>
        </g>
        <g transform="matrix(1.83695,0,0,1.83695,-4441.37,756.008)">
            <path d="M3000.16,97.019C3038.97,59.748 3108.55,107.374 3118.01,140.415" style="fill:none;stroke:rgb(127,127,127);stroke-width:1.36px;"/>
        </g>
        <g transform="matrix(2.70871,0,0,2.70871,-1946.68,-3650.01)">
            <path d="M1118.08,1692.84C1099.08,1690.86 1078.53,1709.04 1074.98,1723.5C1071.81,1736.42 1071.85,1750.2 1073.51,1762.66" style="fill:none;stroke:rgb(127,127,127);stroke-width:0.92px;"/>
        </g>
        <g transform="matrix(2.70871,0,0,2.70871,-1946.68,-3650.01)">
            <path d="M1080.03,1790.01C1081.63,1794.34 1080.89,1800.11 1082.88,1804.07C1086.03,1810.35 1092.46,1816.1 1097.6,1822.26" style="fill:none;stroke:rgb(127,127,127);stroke-width:0.92px;"/>
        </g>
        <g transform="matrix(2.70871,0,0,2.70871,-1871.26,-3917.57)">
            <path d="M1090.24,1791.62C1081.72,1792.63 1083.29,1827.41 1094.5,1834.23C1105.63,1841 1137.99,1849.77 1144.69,1848.24" style="fill:none;stroke:rgb(127,127,127);stroke-width:0.92px;"/>
        </g>
        <g transform="matrix(2.70871,0,0,2.70871,-1871.26,-3917.57)">
            <path d="M1145.03,1820C1145.03,1820 1144.95,1839.42 1148.18,1849.16C1150.32,1855.61 1152.48,1863.15 1156.54,1865.37C1157.66,1865.98 1158.17,1876.72 1159.61,1876.39" style="fill:none;stroke:rgb(127,127,127);stroke-width:0.92px;"/>
        </g>
        <g transform="matrix(2.70871,0,0,2.70871,-1769.72,-3914.89)">
            <path d="M1103.55,1808.46C1107.82,1819.67 1110.15,1826.2 1114.84,1830.86C1116.84,1832.85 1119.27,1834.5 1122.46,1836.04" style="fill:none;stroke:rgb(127,127,127);stroke-width:0.92px;"/>
        </g>
        <g transform="matrix(1.60217,-2.18407,2.18407,1.60217,-4739.39,507.368)">
            <path d="M1079.38,1818.2C1083.66,1829.42 1093.79,1832.8 1104.39,1834.04C1107.19,1834.37 1118.55,1834.19 1121.74,1835.72" style="fill:none;stroke:rgb(127,127,127);stroke-width:0.92px;"/>
        </g>
        <g transform="matrix(2.70871,0,0,2.70871,-1809.96,-3884.62)">
            <path d="M1093.36,1795.49C1100.46,1797.12 1111.83,1820.5 1114.84,1830.86C1115.62,1833.57 1119.27,1834.5 1122.46,1836.04" style="fill:none;stroke:rgb(127,127,127);stroke-width:0.92px;"/>
        </g>
        <g transform="matrix(2.70871,0,0,2.70871,-1946.68,-3650.01)">
            <path d="M1102.21,1826.6C1110.58,1836.49 1118.43,1844.02 1131.31,1845.42C1141.63,1846.55 1150.18,1837.5 1156.83,1831.62C1161.01,1827.92 1166.09,1822.48 1169.06,1817.76C1172.29,1812.61 1176.2,1805.36 1177.46,1800.68C1181.51,1785.57 1182.08,1782.71 1184.08,1767.21" style="fill:none;stroke:rgb(127,127,127);stroke-width:0.92px;"/>
        </g>
        <g transform="matrix(1.83695,0,0,1.83695,-4298.74,805.5)">
            <path d="M3041.93,120.582C3043.03,123.081 3044.03,121.507 3045.22,154.711C3045.57,164.335 3039.95,182.687 3044.42,192.94C3050.05,205.849 3055.28,214.706 3041.84,262.9C3037.22,279.466 3031.21,284.65 3023.47,292.078C3018.09,297.244 3011.27,306.637 3011.68,308.495" style="fill:none;stroke:rgb(127,127,127);stroke-width:1.36px;"/>
        </g>
        <g transform="matrix(1.83695,0,0,1.83695,-4298.74,805.5)">
            <path d="M2877.27,304.406C2877.52,303.067 2887.95,295.669 2888.62,293.74C2889.88,290.113 2894.31,291.812 2889.31,250.838" style="fill:none;stroke:rgb(127,127,127);stroke-width:1.36px;"/>
        </g>
        <g transform="matrix(-1.83695,0,0,1.83695,6504.01,814.603)">
            <path d="M2884.72,305.447C2884.72,305.447 2898.55,297.041 2892.75,268.68" style="fill:none;stroke:rgb(127,127,127);stroke-width:1.36px;"/>
        </g>
        <g transform="matrix(1.83695,0,0,1.83695,-4232.07,588.124)">
            <path d="M2829.67,294.2C2829.67,294.2 2821.99,286.448 2817.3,289.911C2812.6,293.375 2814.12,301.943 2814.25,307.013C2814.36,311.628 2818.05,320.332 2818.05,320.332C2819.37,327.719 2823.62,330.861 2826.71,332.856C2829.47,334.643 2836.57,332.303 2836.57,332.303" style="fill:none;stroke:rgb(127,127,127);stroke-width:1.36px;"/>
        </g>
        <g transform="matrix(1.83695,0,0,1.83695,-4228.14,601.341)">
            <path d="M2822.3,304.993C2823.11,306.294 2824.83,307.493 2826.83,308.311" style="fill:none;stroke:rgb(127,127,127);stroke-width:1.36px;"/>
        </g>
        <g transform="matrix(1.83695,0,0,1.83695,-3343.63,579.137)">
            <path d="M2310.88,452.464C2310.3,452.821 2353.32,430.897 2354.97,429.35C2355.84,428.539 2356.85,427.906 2357.76,427.057C2359.63,425.319 2361.28,423.747 2361.78,425.378C2363.66,431.543 2355.39,457.287 2364.75,468.043C2375.06,479.894 2403.97,495.046 2423.64,496.484C2443.3,497.921 2473.91,487.108 2482.75,476.668C2491.58,466.228 2476.65,433.845 2476.65,433.845C2476.65,433.845 2490.34,438.662 2495.68,440.787C2500.09,442.545 2504.25,444.909 2508.7,446.599C2514.53,448.818 2525.29,452.339 2530.67,454.1" style="fill:none;stroke:rgb(127,127,127);stroke-width:1.47px;"/>
        </g>
        <g transform="matrix(1.83695,0,0,1.83695,-4059.44,1120.39)">
            <path d="M2885.34,81.995C2885.34,81.995 2880.42,85.358 2879.15,96.236C2878.69,100.181 2878.75,105.607 2878.02,109.14C2876.05,118.743 2872.22,124.962 2870.46,131.39" style="fill:none;stroke:rgb(127,127,127);stroke-width:1.36px;"/>
        </g>
        <g transform="matrix(1.83695,0,0,1.83695,-4059.44,1120.39)">
            <path d="M2870.46,131.39C2870.46,131.39 2871.01,112.217 2870.21,101.824" style="fill:none;stroke:rgb(127,127,127);stroke-width:1.36px;"/>
        </g>
        <g transform="matrix(1.4103,0,0,1.4103,-2838.51,220.32)">
            <path d="M2789.61,757.043C2789.61,757.043 2798.97,765.442 2803.88,761.616C2811.63,755.586 2789.61,757.043 2789.61,757.043Z" style="fill:rgb(127,127,127);"/>
        </g>
        <g transform="matrix(-1.4103,0,0,1.4103,5082,220.32)">
            <path d="M2789.61,757.043C2789.61,757.043 2798.97,765.442 2803.88,761.616C2811.63,755.586 2789.61,757.043 2789.61,757.043Z" style="fill:rgb(127,127,127);"/>
        </g>
        <g transform="matrix(1.83695,0,0,1.83695,-4369.61,-744.446)">
            <path d="M2960.8,927.565C2960.8,927.565 2962.92,921.156 2972.41,921.664" style="fill:none;stroke:rgb(127,127,127);stroke-width:1.47px;"/>
        </g>
        <g transform="matrix(1.76343,0.514495,-0.514495,1.76343,-3630.6,-2228.08)">
            <path d="M2960.8,927.565C2960.8,927.565 2962.92,921.156 2972.41,921.664" style="fill:none;stroke:rgb(127,127,127);stroke-width:1.47px;"/>
        </g>
        <g transform="matrix(1.83695,0,0,1.83695,-4369.61,-715.304)">
            <path d="M2960.54,927.45C2960.54,927.45 2962.92,921.156 2972.41,921.664" style="fill:none;stroke:rgb(127,127,127);stroke-width:1.47px;"/>
        </g>
        <g transform="matrix(2.20126,0.0159885,-0.0175406,2.41494,-4170,-1395.72)">
            <circle cx="2367.03" cy="1051.87" r="0.373" style="fill:rgb(127,127,127);"/>
        </g>
        <g transform="matrix(-2.11031,-0.626405,-0.687212,2.31516,6933.04,233.237)">
            <circle cx="2367.03" cy="1051.87" r="0.373" style="fill:rgb(127,127,127);"/>
        </g>
        <g transform="matrix(1.58339,1.52927,1.67772,-1.73709,-4498.07,-578.844)">
            <circle cx="2367.03" cy="1051.87" r="0.373" style="fill:rgb(127,127,127);"/>
        </g>
        <g transform="matrix(-1.96042,1.00127,-1.09847,-2.15072,7008.74,1110.28)">
            <circle cx="2367.03" cy="1051.87" r="0.373" style="fill:rgb(127,127,127);"/>
        </g>
        <g transform="matrix(2.20126,0.0159885,-0.0175406,2.41494,-4152.82,-1382.05)">
            <circle cx="2367.03" cy="1051.87" r="0.373" style="fill:rgb(127,127,127);"/>
        </g>
        <g transform="matrix(-2.11031,-0.626405,-0.687212,2.31516,6912.62,241.306)">
            <circle cx="2367.03" cy="1051.87" r="0.373" style="fill:rgb(127,127,127);"/>
        </g>
        <g transform="matrix(1.58339,1.52927,1.67772,-1.73709,-4476.24,-576.585)">
            <circle cx="2367.03" cy="1051.87" r="0.373" style="fill:rgb(127,127,127);"/>
        </g>
        <g transform="matrix(-1.96042,1.00127,-1.09847,-2.15072,6987.19,1106.07)">
            <circle cx="2367.03" cy="1051.87" r="0.373" style="fill:rgb(127,127,127);"/>
        </g>
        <g transform="matrix(2.20126,0.0159885,-0.0175406,2.41494,-4188.22,-1393.22)">
            <circle cx="2367.03" cy="1051.87" r="0.373" style="fill:rgb(127,127,127);"/>
        </g>
        <g transform="matrix(-2.11031,-0.626405,-0.687212,2.31516,6949.74,240.944)">
            <circle cx="2367.03" cy="1051.87" r="0.373" style="fill:rgb(127,127,127);"/>
        </g>
        <g transform="matrix(1.58339,1.52927,1.67772,-1.73709,-4509.34,-593.386)">
            <circle cx="2367.03" cy="1051.87" r="0.373" style="fill:rgb(127,127,127);"/>
        </g>
        <g transform="matrix(-1.96042,1.00127,-1.09847,-2.15072,7023.75,1099.65)">
            <circle cx="2367.03" cy="1051.87" r="0.373" style="fill:rgb(127,127,127);"/>
        </g>
        <g transform="matrix(2.20126,0.0159885,-0.0175406,2.41494,-4174.05,-1387.21)">
            <circle cx="2367.03" cy="1051.87" r="0.373" style="fill:rgb(127,127,127);"/>
        </g>
        <g transform="matrix(-2.11031,-0.626405,-0.687212,2.31516,6934.43,242.558)">
            <circle cx="2367.03" cy="1051.87" r="0.373" style="fill:rgb(127,127,127);"/>
        </g>
        <g transform="matrix(1.58339,1.52927,1.67772,-1.73709,-4495.01,-587.757)">
            <circle cx="2367.03" cy="1051.87" r="0.373" style="fill:rgb(127,127,127);"/>
        </g>
        <g transform="matrix(-1.96042,1.00127,-1.09847,-2.15072,7008.4,1100.86)">
            <circle cx="2367.03" cy="1051.87" r="0.373" style="fill:rgb(127,127,127);"/>
        </g>
        <g transform="matrix(2.20126,0.0159885,-0.0175406,2.41494,-4153.64,-1394.82)">
            <circle cx="2367.03" cy="1051.87" r="0.373" style="fill:rgb(127,127,127);"/>
        </g>
        <g transform="matrix(-2.11031,-0.626405,-0.687212,2.31516,6917.13,229.33)">
            <circle cx="2367.03" cy="1051.87" r="0.373" style="fill:rgb(127,127,127);"/>
        </g>
        <g transform="matrix(1.58339,1.52927,1.67772,-1.73709,-4485.76,-568.038)">
            <circle cx="2367.03" cy="1051.87" r="0.373" style="fill:rgb(127,127,127);"/>
        </g>
        <g transform="matrix(-1.96042,1.00127,-1.09847,-2.15072,6993.81,1117.02)">
            <circle cx="2367.03" cy="1051.87" r="0.373" style="fill:rgb(127,127,127);"/>
        </g>
        <g transform="matrix(2.20126,0.0159885,-0.0175406,2.41494,-4136.92,-1393.56)">
            <circle cx="2367.03" cy="1051.87" r="0.373" style="fill:rgb(127,127,127);"/>
        </g>
        <g transform="matrix(-2.11031,-0.626405,-0.687212,2.31516,6900.77,225.666)">
            <circle cx="2367.03" cy="1051.87" r="0.373" style="fill:rgb(127,127,127);"/>
        </g>
        <g transform="matrix(1.58339,1.52927,1.67772,-1.73709,-4472.93,-557.24)">
            <circle cx="2367.03" cy="1051.87" r="0.373" style="fill:rgb(127,127,127);"/>
        </g>
        <g transform="matrix(-1.96042,1.00127,-1.09847,-2.15072,6978.39,1123.61)">
            <circle cx="2367.03" cy="1051.87" r="0.373" style="fill:rgb(127,127,127);"/>
        </g>
        <g transform="matrix(2.20126,0.0159885,-0.0175406,2.41494,-4161.82,-1393.92)">
            <circle cx="2367.03" cy="1051.87" r="0.373" style="fill:rgb(127,127,127);"/>
        </g>
        <g transform="matrix(-2.11031,-0.626405,-0.687212,2.31516,6924.69,232.576)">
            <circle cx="2367.03" cy="1051.87" r="0.373" style="fill:rgb(127,127,127);"/>
        </g>
        <g transform="matrix(1.58339,1.52927,1.67772,-1.73709,-4490.97,-574.407)">
            <circle cx="2367.03" cy="1051.87" r="0.373" style="fill:rgb(127,127,127);"/>
        </g>
        <g transform="matrix(-1.96042,1.00127,-1.09847,-2.15072,7000.65,1112.45)">
            <circle cx="2367.03" cy="1051.87" r="0.373" style="fill:rgb(127,127,127);"/>
        </g>
        <g transform="matrix(2.20126,0.0159885,-0.0175406,2.41494,-4142.77,-1379.35)">
            <circle cx="2367.03" cy="1051.87" r="0.373" style="fill:rgb(127,127,127);"/>
        </g>
        <g transform="matrix(-2.11031,-0.626405,-0.687212,2.31516,6902.23,240.965)">
            <circle cx="2367.03" cy="1051.87" r="0.373" style="fill:rgb(127,127,127);"/>
        </g>
        <g transform="matrix(1.58339,1.52927,1.67772,-1.73709,-4467.17,-571.486)">
            <circle cx="2367.03" cy="1051.87" r="0.373" style="fill:rgb(127,127,127);"/>
        </g>
        <g transform="matrix(-1.96042,1.00127,-1.09847,-2.15072,6977.03,1108.3)">
            <circle cx="2367.03" cy="1051.87" r="0.373" style="fill:rgb(127,127,127);"/>
        </g>
        <g transform="matrix(2.20126,0.0159885,-0.0175406,2.41494,-4179.6,-1397.53)">
            <circle cx="2367.03" cy="1051.87" r="0.373" style="fill:rgb(127,127,127);"/>
        </g>
        <g transform="matrix(-2.11031,-0.626405,-0.687212,2.31516,6942.75,234.311)">
            <circle cx="2367.03" cy="1051.87" r="0.373" style="fill:rgb(127,127,127);"/>
        </g>
        <g transform="matrix(1.58339,1.52927,1.67772,-1.73709,-4506.19,-584.276)">
            <circle cx="2367.03" cy="1051.87" r="0.373" style="fill:rgb(127,127,127);"/>
        </g>
        <g transform="matrix(-1.96042,1.00127,-1.09847,-2.15072,7018.09,1107.45)">
            <circle cx="2367.03" cy="1051.87" r="0.373" style="fill:rgb(127,127,127);"/>
        </g>
        <g transform="matrix(2.20126,0.0159885,-0.0175406,2.41494,-4157.45,-1387.57)">
            <circle cx="2367.03" cy="1051.87" r="0.373" style="fill:rgb(127,127,127);"/>
        </g>
        <g transform="matrix(-2.11031,-0.626405,-0.687212,2.31516,6918.66,237.378)">
            <circle cx="2367.03" cy="1051.87" r="0.373" style="fill:rgb(127,127,127);"/>
        </g>
        <g transform="matrix(1.58339,1.52927,1.67772,-1.73709,-4483.41,-575.887)">
            <circle cx="2367.03" cy="1051.87" r="0.373" style="fill:rgb(127,127,127);"/>
        </g>
        <g transform="matrix(-1.96042,1.00127,-1.09847,-2.15072,6993.85,1108.83)">
            <circle cx="2367.03" cy="1051.87" r="0.373" style="fill:rgb(127,127,127);"/>
        </g>
        <g transform="matrix(2.20126,0.0159885,-0.0175406,2.41494,-4145.49,-1397.53)">
            <circle cx="2367.03" cy="1051.87" r="0.373" style="fill:rgb(127,127,127);"/>
        </g>
        <g transform="matrix(-2.11031,-0.626405,-0.687212,2.31516,6910.12,224.367)">
            <circle cx="2367.03" cy="1051.87" r="0.373" style="fill:rgb(127,127,127);"/>
        </g>
        <g transform="matrix(1.58339,1.52927,1.67772,-1.73709,-4481.83,-560.401)">
            <circle cx="2367.03" cy="1051.87" r="0.373" style="fill:rgb(127,127,127);"/>
        </g>
        <g transform="matrix(-1.96042,1.00127,-1.09847,-2.15072,6987.82,1123.18)">
            <circle cx="2367.03" cy="1051.87" r="0.373" style="fill:rgb(127,127,127);"/>
        </g>
        <g transform="matrix(2.20126,0.0159885,-0.0175406,2.41494,-4130.49,-1388.43)">
            <circle cx="2367.03" cy="1051.87" r="0.373" style="fill:rgb(127,127,127);"/>
        </g>
        <g transform="matrix(-2.11031,-0.626405,-0.687212,2.31516,6893.13,228.694)">
            <circle cx="2367.03" cy="1051.87" r="0.373" style="fill:rgb(127,127,127);"/>
        </g>
        <g transform="matrix(2.20126,0.0159885,-0.0175406,2.41494,-4165.75,-1387.57)">
            <circle cx="2367.03" cy="1051.87" r="0.373" style="fill:rgb(127,127,127);"/>
        </g>
        <g transform="matrix(-2.11031,-0.626405,-0.687212,2.31516,6926.6,239.797)">
            <circle cx="2367.03" cy="1051.87" r="0.373" style="fill:rgb(127,127,127);"/>
        </g>
        <g transform="matrix(1.58339,1.52927,1.67772,-1.73709,-4489.34,-581.695)">
            <circle cx="2367.03" cy="1051.87" r="0.373" style="fill:rgb(127,127,127);"/>
        </g>
        <g transform="matrix(-1.96042,1.00127,-1.09847,-2.15072,7001.21,1105)">
            <circle cx="2367.03" cy="1051.87" r="0.373" style="fill:rgb(127,127,127);"/>
        </g>
        <g transform="matrix(2.20126,0.0159885,-0.0175406,2.41494,-4164.41,-1381.15)">
            <circle cx="2367.03" cy="1051.87" r="0.373" style="fill:rgb(127,127,127);"/>
        </g>
        <g transform="matrix(-2.11031,-0.626405,-0.687212,2.31516,6923.45,245.55)">
            <circle cx="2367.03" cy="1051.87" r="0.373" style="fill:rgb(127,127,127);"/>
        </g>
        <g transform="matrix(1.58339,1.52927,1.67772,-1.73709,-4483.89,-585.346)">
            <circle cx="2367.03" cy="1051.87" r="0.373" style="fill:rgb(127,127,127);"/>
        </g>
        <g transform="matrix(-1.96042,1.00127,-1.09847,-2.15072,6997.06,1099.92)">
            <circle cx="2367.03" cy="1051.87" r="0.373" style="fill:rgb(127,127,127);"/>
        </g>
        <g transform="matrix(2.20126,0.0159885,-0.0175406,2.41494,-4181.24,-1385.41)">
            <circle cx="2367.03" cy="1051.87" r="0.373" style="fill:rgb(127,127,127);"/>
        </g>
        <g transform="matrix(-2.11031,-0.626405,-0.687212,2.31516,6940.79,246.378)">
            <circle cx="2367.03" cy="1051.87" r="0.373" style="fill:rgb(127,127,127);"/>
        </g>
        <g transform="matrix(1.58339,1.52927,1.67772,-1.73709,-4498.89,-594.078)">
            <circle cx="2367.03" cy="1051.87" r="0.373" style="fill:rgb(127,127,127);"/>
        </g>
        <g transform="matrix(-1.96042,1.00127,-1.09847,-2.15072,7013.95,1095.94)">
            <circle cx="2367.03" cy="1051.87" r="0.373" style="fill:rgb(127,127,127);"/>
        </g>
        <g transform="matrix(2.20126,0.0159885,-0.0175406,2.41494,-4171.9,-1381.15)">
            <circle cx="2367.03" cy="1051.87" r="0.373" style="fill:rgb(127,127,127);"/>
        </g>
        <g transform="matrix(-2.11031,-0.626405,-0.687212,2.31516,6930.61,247.732)">
            <circle cx="2367.03" cy="1051.87" r="0.373" style="fill:rgb(127,127,127);"/>
        </g>
        <g transform="matrix(1.58339,1.52927,1.67772,-1.73709,-4489.24,-590.586)">
            <circle cx="2367.03" cy="1051.87" r="0.373" style="fill:rgb(127,127,127);"/>
        </g>
        <g transform="matrix(-1.96042,1.00127,-1.09847,-2.15072,7003.7,1096.47)">
            <circle cx="2367.03" cy="1051.87" r="0.373" style="fill:rgb(127,127,127);"/>
        </g>
        <g transform="matrix(2.20126,0.0159885,-0.0175406,2.41494,-4148.55,-1387.57)">
            <circle cx="2367.03" cy="1051.87" r="0.373" style="fill:rgb(127,127,127);"/>
        </g>
        <g transform="matrix(-2.11031,-0.626405,-0.687212,2.31516,6910.15,234.783)">
            <circle cx="2367.03" cy="1051.87" r="0.373" style="fill:rgb(127,127,127);"/>
        </g>
        <g transform="matrix(1.58339,1.52927,1.67772,-1.73709,-4477.05,-569.656)">
            <circle cx="2367.03" cy="1051.87" r="0.373" style="fill:rgb(127,127,127);"/>
        </g>
        <g transform="matrix(-1.96042,1.00127,-1.09847,-2.15072,6985.95,1112.94)">
            <circle cx="2367.03" cy="1051.87" r="0.373" style="fill:rgb(127,127,127);"/>
        </g>
        <g transform="matrix(2.20126,0.0159885,-0.0175406,2.41494,-4135.28,-1376.3)">
            <circle cx="2367.03" cy="1051.87" r="0.373" style="fill:rgb(127,127,127);"/>
        </g>
        <g transform="matrix(-2.11031,-0.626405,-0.687212,2.31516,6894.16,241.7)">
            <circle cx="2367.03" cy="1051.87" r="0.373" style="fill:rgb(127,127,127);"/>
        </g>
        <g transform="matrix(1.58339,1.52927,1.67772,-1.73709,-4459.68,-568.419)">
            <circle cx="2367.03" cy="1051.87" r="0.373" style="fill:rgb(127,127,127);"/>
        </g>
        <g transform="matrix(-1.96042,1.00127,-1.09847,-2.15072,6968.97,1109.05)">
            <circle cx="2367.03" cy="1051.87" r="0.373" style="fill:rgb(127,127,127);"/>
        </g>
        <g transform="matrix(2.20126,0.0159885,-0.0175406,2.41494,-4165.75,-1400.77)">
            <circle cx="2367.03" cy="1051.87" r="0.373" style="fill:rgb(127,127,127);"/>
        </g>
        <g transform="matrix(-2.11031,-0.626405,-0.687212,2.31516,6930.45,227.168)">
            <circle cx="2367.03" cy="1051.87" r="0.373" style="fill:rgb(127,127,127);"/>
        </g>
        <g transform="matrix(1.58339,1.52927,1.67772,-1.73709,-4498.58,-572.265)">
            <circle cx="2367.03" cy="1051.87" r="0.373" style="fill:rgb(127,127,127);"/>
        </g>
        <g transform="matrix(-1.96042,1.00127,-1.09847,-2.15072,7007.3,1116.72)">
            <circle cx="2367.03" cy="1051.87" r="0.373" style="fill:rgb(127,127,127);"/>
        </g>
        <g transform="matrix(2.20126,0.0159885,-0.0175406,2.41494,-4149.37,-1375.39)">
            <circle cx="2367.03" cy="1051.87" r="0.373" style="fill:rgb(127,127,127);"/>
        </g>
        <g transform="matrix(-2.11031,-0.626405,-0.687212,2.31516,6907.38,246.671)">
            <circle cx="2367.03" cy="1051.87" r="0.373" style="fill:rgb(127,127,127);"/>
        </g>
        <g transform="matrix(1.58339,1.52927,1.67772,-1.73709,-4469.11,-578.929)">
            <circle cx="2367.03" cy="1051.87" r="0.373" style="fill:rgb(127,127,127);"/>
        </g>
        <g transform="matrix(-1.96042,1.00127,-1.09847,-2.15072,6981.06,1101.75)">
            <circle cx="2367.03" cy="1051.87" r="0.373" style="fill:rgb(127,127,127);"/>
        </g>
        <g transform="matrix(2.20126,0.0159885,-0.0175406,2.41494,-4180.42,-1391.47)">
            <circle cx="2367.03" cy="1051.87" r="0.373" style="fill:rgb(127,127,127);"/>
        </g>
        <g transform="matrix(-2.11031,-0.626405,-0.687212,2.31516,6941.77,240.345)">
            <circle cx="2367.03" cy="1051.87" r="0.373" style="fill:rgb(127,127,127);"/>
        </g>
        <g transform="matrix(1.58339,1.52927,1.67772,-1.73709,-4502.54,-589.177)">
            <circle cx="2367.03" cy="1051.87" r="0.373" style="fill:rgb(127,127,127);"/>
        </g>
        <g transform="matrix(-1.96042,1.00127,-1.09847,-2.15072,7016.02,1101.69)">
            <circle cx="2367.03" cy="1051.87" r="0.373" style="fill:rgb(127,127,127);"/>
        </g>
        <g transform="matrix(2.20126,0.0159885,-0.0175406,2.41494,-4157.45,-1377.2)">
            <circle cx="2367.03" cy="1051.87" r="0.373" style="fill:rgb(127,127,127);"/>
        </g>
        <g transform="matrix(-2.11031,-0.626405,-0.687212,2.31516,6915.64,247.302)">
            <circle cx="2367.03" cy="1051.87" r="0.373" style="fill:rgb(127,127,127);"/>
        </g>
        <g transform="matrix(1.58339,1.52927,1.67772,-1.73709,-4476.15,-583.297)">
            <circle cx="2367.03" cy="1051.87" r="0.373" style="fill:rgb(127,127,127);"/>
        </g>
        <g transform="matrix(-1.96042,1.00127,-1.09847,-2.15072,6989.06,1099.62)">
            <circle cx="2367.03" cy="1051.87" r="0.373" style="fill:rgb(127,127,127);"/>
        </g>
        <g transform="matrix(2.20126,0.0159885,-0.0175406,2.41494,-4142.74,-1389.37)">
            <circle cx="2367.03" cy="1051.87" r="0.373" style="fill:rgb(127,127,127);"/>
        </g>
        <g transform="matrix(-2.11031,-0.626405,-0.687212,2.31516,6905.11,231.364)">
            <circle cx="2367.03" cy="1051.87" r="0.373" style="fill:rgb(127,127,127);"/>
        </g>
        <g transform="matrix(1.58339,1.52927,1.67772,-1.73709,-4474.16,-564.3)">
            <circle cx="2367.03" cy="1051.87" r="0.373" style="fill:rgb(127,127,127);"/>
        </g>
        <g transform="matrix(-1.96042,1.00127,-1.09847,-2.15072,6981.62,1117.22)">
            <circle cx="2367.03" cy="1051.87" r="0.373" style="fill:rgb(127,127,127);"/>
        </g>
        <g transform="matrix(2.20126,0.0159885,-0.0175406,2.41494,-4138.56,-1384.29)">
            <circle cx="2367.03" cy="1051.87" r="0.373" style="fill:rgb(127,127,127);"/>
        </g>
        <g transform="matrix(-2.11031,-0.626405,-0.687212,2.31516,6899.64,235.015)">
            <circle cx="2367.03" cy="1051.87" r="0.373" style="fill:rgb(127,127,127);"/>
        </g>
        <g transform="matrix(1.58339,1.52927,1.67772,-1.73709,-4467.62,-565.013)">
            <circle cx="2367.03" cy="1051.87" r="0.373" style="fill:rgb(127,127,127);"/>
        </g>
        <g transform="matrix(-1.96042,1.00127,-1.09847,-2.15072,6975.57,1114.63)">
            <circle cx="2367.03" cy="1051.87" r="0.373" style="fill:rgb(127,127,127);"/>
        </g>
        <g transform="matrix(2.20126,0.0159885,-0.0175406,2.41494,-4125.75,-1381.15)">
            <circle cx="2367.03" cy="1051.87" r="0.373" style="fill:rgb(127,127,127);"/>
        </g>
        <g transform="matrix(-2.11031,-0.626405,-0.687212,2.31516,6886.46,234.277)">
            <circle cx="2367.03" cy="1051.87" r="0.373" style="fill:rgb(127,127,127);"/>
        </g>
        <g transform="matrix(1.83695,0,0,1.83695,-3327.44,-747.621)">
            <path d="M2417.89,1075.21C2417.23,1076.35 2415.91,1078.65 2418.27,1081.23" style="fill:none;stroke:rgb(127,127,127);stroke-width:1.25px;"/>
        </g>
    </g>
</svg>
