<?xml version="1.0" encoding="UTF-8" standalone="no"?>
<!DOCTYPE svg PUBLIC "-//W3C//DTD SVG 1.1//EN" "http://www.w3.org/Graphics/SVG/1.1/DTD/svg11.dtd">
<svg width="100%" height="100%" viewBox="0 0 422 563" version="1.1" xmlns="http://www.w3.org/2000/svg" xmlns:xlink="http://www.w3.org/1999/xlink" xml:space="preserve" xmlns:serif="http://www.serif.com/" style="fill-rule:evenodd;clip-rule:evenodd;stroke-linecap:round;stroke-linejoin:round;stroke-miterlimit:1.5;">
    <g transform="matrix(1,0,0,1,-2830.72,-393.229)">
        <g transform="matrix(1.72287,0,0,1.72287,-1095.27,-674.711)">
            <path d="M2398.58,821.028C2398.58,821.028 2393.34,820.468 2388.26,819.501C2385.79,819.03 2383.35,818.465 2381.6,817.817C2381.22,817.678 2380.81,817.87 2380.67,818.246C2380.53,818.621 2380.72,819.039 2381.1,819.178C2382.91,819.848 2385.43,820.439 2387.99,820.927C2393.12,821.904 2398.42,822.471 2398.42,822.471C2398.82,822.513 2399.18,822.224 2399.22,821.826C2399.26,821.428 2398.98,821.07 2398.58,821.028Z" style="fill:rgb(127,127,127);"/>
        </g>
        <g transform="matrix(-1.72287,0,0,1.72287,7204.47,-674.361)">
            <path d="M2398.5,821.749C2398.5,821.749 2387.59,820.257 2382.83,820.138" style="fill:none;stroke:rgb(127,127,127);stroke-width:1.45px;"/>
        </g>
        <g transform="matrix(-2.05584,0,0,2.05584,4999.9,-784.308)">
            <path d="M1003.45,676.923C991.413,670.818 964.708,671.305 970.897,675.767C971.743,676.376 967.943,674.569 966.987,675.165" style="fill:none;stroke:rgb(127,127,127);stroke-width:1.22px;"/>
        </g>
        <g transform="matrix(-2.05584,0,0,2.05584,5154.54,-784.308)">
            <path d="M1003.45,676.923C994.214,670.691 964.708,671.305 970.897,675.767C971.743,676.376 967.943,674.569 966.987,675.165" style="fill:none;stroke:rgb(127,127,127);stroke-width:1.22px;"/>
        </g>
        <g transform="matrix(-2.44747,0,0,1.84749,5393.34,-669.018)">
            <path d="M1006.1,675.57C998.941,671.752 987.288,667.92 974.288,673.572" style="fill:none;stroke:rgb(127,127,127);stroke-width:1.15px;"/>
        </g>
        <g transform="matrix(2.44747,0,0,1.84749,705.717,-664.678)">
            <path d="M1004.43,673.221C997.434,669.277 986.421,667.053 973.583,672.346" style="fill:none;stroke:rgb(127,127,127);stroke-width:1.15px;"/>
        </g>
        <g transform="matrix(1.72287,0,0,1.72287,-1085.12,-669.999)">
            <path d="M2382.18,817.92C2382.18,817.92 2385.78,812.894 2388.53,812.603C2391.78,812.257 2397.27,815.813 2401.69,815.848C2406.11,815.882 2411.8,812.322 2415.04,812.81C2417.86,813.233 2421.17,818.776 2421.17,818.776L2401.21,822.072L2382.18,817.92Z" style="fill:rgb(127,127,127);"/>
        </g>
        <g transform="matrix(2.58645,0,0,2.58645,643.254,-1165.46)">
            <path d="M898.179,682.042C901.099,682.042 903.296,681.508 903.296,684.429C903.296,687.35 900.925,689.721 898.004,689.721C895.083,689.721 892.712,687.35 892.712,684.429C892.712,681.508 895.258,682.042 898.179,682.042Z" style="fill:rgb(127,127,127);"/>
        </g>
        <g transform="matrix(2.58645,0,0,2.58645,798.253,-1165.46)">
            <path d="M898.12,682.004C901.041,682.004 903.296,681.508 903.296,684.429C903.296,687.35 900.925,689.721 898.004,689.721C895.083,689.721 892.712,687.35 892.712,684.429C892.712,681.508 895.2,682.004 898.12,682.004Z" style="fill:rgb(127,127,127);"/>
        </g>
        <g transform="matrix(0.540409,0,0,0.540409,2476.02,233.215)">
            <circle cx="898.004" cy="684.429" r="5.292" style="fill:white;"/>
        </g>
        <g transform="matrix(0.540409,0,0,0.540409,2629.51,233.849)">
            <circle cx="898.004" cy="684.429" r="5.292" style="fill:white;"/>
        </g>
        <g transform="matrix(2.06078,0,0,2.06078,-2441.97,-943.686)">
            <path d="M2667.67,757.911C2667.67,757.911 2669.55,764.363 2670.04,767.676C2670.64,771.682 2671.14,777.575 2671.28,781.951C2671.4,785.945 2671.34,792.55 2670.85,793.932C2670.01,796.319 2663.58,795.692 2663.58,795.692" style="fill:none;stroke:rgb(127,127,127);stroke-width:1.21px;"/>
        </g>
        <g transform="matrix(1.95243,0,0,1.95243,-2150.4,-846.34)">
            <path d="M2652.94,787.248C2653.17,789.077 2653.43,789.726 2657.17,789.469" style="fill:none;stroke:rgb(127,127,127);stroke-width:1.17px;"/>
        </g>
        <g transform="matrix(1.83695,0,0,1.83695,-2510.62,219.216)">
            <path d="M3010.34,104.748C3050.62,80.517 3108.55,107.374 3118.01,140.415" style="fill:none;stroke:rgb(127,127,127);stroke-width:1.36px;"/>
        </g>
        <g transform="matrix(1.83695,0,0,1.83695,-2367.99,268.708)">
            <path d="M2843.93,124.105C2843.93,124.061 2842.55,133.308 2839.76,139.32C2835.85,147.769 2833.35,157.636 2832.32,170.322C2831.51,180.384 2838.74,210.684 2835.06,238.661C2834.12,245.809 2837.43,303.906 2839.68,313.466" style="fill:none;stroke:rgb(127,127,127);stroke-width:1.36px;"/>
        </g>
        <g transform="matrix(-1.83695,0,0,1.83695,8121.34,192.881)">
            <path d="M2785.78,146.929C2790.29,161.256 2804.16,172.945 2811.34,181.051C2826.96,198.695 2836.28,206.678 2836.61,242.705" style="fill:none;stroke:rgb(127,127,127);stroke-width:1.36px;"/>
        </g>
        <g transform="matrix(2.70871,0,0,2.70871,-15.9307,-4186.8)">
            <path d="M1080.38,1780.27C1079.59,1789.17 1089.07,1810.75 1097.45,1820.8" style="fill:none;stroke:rgb(127,127,127);stroke-width:0.92px;"/>
        </g>
        <g transform="matrix(2.70871,0,0,2.70871,59.4936,-4454.36)">
            <path d="M1086.89,1810.94C1086.89,1810.94 1087.29,1826.93 1094.5,1834.23C1103.66,1843.5 1137.99,1849.77 1144.69,1848.24" style="fill:none;stroke:rgb(127,127,127);stroke-width:0.92px;"/>
        </g>
        <g transform="matrix(2.70871,0,0,2.70871,59.4936,-4454.36)">
            <path d="M1145.03,1820C1145.03,1820 1144.95,1839.42 1148.18,1849.16C1150.9,1857.39 1153.67,1867.39 1160.37,1865.86" style="fill:none;stroke:rgb(127,127,127);stroke-width:0.92px;"/>
        </g>
        <g transform="matrix(2.70871,0,0,2.70871,161.032,-4451.68)">
            <path d="M1103.55,1808.46C1108.87,1822.4 1111.17,1829.1 1118.75,1833.98C1119.86,1834.7 1121.09,1835.38 1122.46,1836.04" style="fill:none;stroke:rgb(127,127,127);stroke-width:0.92px;"/>
        </g>
        <g transform="matrix(2.70871,0,0,2.70871,-15.9307,-4186.8)">
            <path d="M1102.21,1826.6C1109.14,1834.8 1110.79,1835.25 1115.53,1838.6C1120.38,1842.03 1126.32,1847.05 1131.35,1847.16C1136.39,1847.28 1141.42,1842.63 1145.74,1839.27C1152.02,1834.37 1166.09,1822.48 1169.06,1817.76C1172.29,1812.61 1176.2,1805.36 1177.46,1800.68C1181.51,1785.57 1182.08,1782.71 1184.08,1767.21" style="fill:none;stroke:rgb(127,127,127);stroke-width:0.92px;"/>
        </g>
        <g transform="matrix(1.83695,0,0,1.83695,-2736.31,158.807)">
            <path d="M3044.91,178.006C3045.38,173.736 3045.39,173.813 3047.83,169.94C3065.66,141.607 3080.74,128.884 3118.95,135.499C3122.69,136.147 3129.57,139.742 3129.62,145.073" style="fill:none;stroke:rgb(127,127,127);stroke-width:1.36px;"/>
        </g>
        <g transform="matrix(1.83695,0,0,1.83695,-2300.79,292.148)">
            <path d="M2834.77,216.79C2834.37,225.707 2841.89,224.49 2840.78,240.039C2840.26,247.355 2838.9,251.781 2837.39,255.31C2835.31,260.155 2834.06,263.412 2835.74,277.647" style="fill:none;stroke:rgb(127,127,127);stroke-width:1.36px;"/>
        </g>
        <g transform="matrix(1.83695,0,0,1.83695,-2367.99,268.708)">
            <path d="M3041.93,120.582C3043.03,123.081 3039.6,132.278 3040.78,165.481C3041.13,175.105 3043.83,181.771 3044.42,192.94C3045.55,214.315 3040.82,241.959 3041.84,262.9C3043.27,292.025 3050.39,311.844 3051.37,316.372" style="fill:none;stroke:rgb(127,127,127);stroke-width:1.36px;"/>
        </g>
        <g transform="matrix(1.83695,0,0,1.83695,-2367.99,268.708)">
            <path d="M2878.03,87.373C2878.03,87.373 2859.36,100.814 2856.46,111.369" style="fill:none;stroke:rgb(127,127,127);stroke-width:1.36px;"/>
        </g>
        <g transform="matrix(1.83695,0,0,1.83695,-2367.99,268.708)">
            <path d="M2877.27,304.406C2877.52,303.067 2887.95,295.669 2888.62,293.74C2889.88,290.113 2893.59,286.143 2888.59,245.169" style="fill:none;stroke:rgb(127,127,127);stroke-width:1.36px;"/>
        </g>
        <g transform="matrix(-1.83695,0,0,1.83695,8434.76,277.811)">
            <path d="M2884.72,305.447C2884.72,305.447 2899.03,295.263 2893.23,266.902" style="fill:none;stroke:rgb(127,127,127);stroke-width:1.36px;"/>
        </g>
        <g transform="matrix(1.83695,0,0,1.83695,-1412.88,42.3447)">
            <path d="M2310.88,452.464C2310.3,452.821 2349.94,433.58 2351.6,432.033C2354.23,429.562 2355.73,428.394 2357.57,427.634C2363.53,425.182 2362.47,450.92 2371.83,461.676C2374.83,465.128 2388.51,477.439 2393.98,481.031C2407.3,489.77 2409.7,495.465 2423.64,496.484C2432.8,497.153 2445.78,490.138 2455.24,484.275C2467.16,476.885 2469.33,471.619 2474.05,466.043C2482.89,455.603 2476.65,433.845 2476.65,433.845C2476.65,433.845 2489.72,437.604 2495.68,440.787C2506.93,446.807 2529.06,456.053 2539.05,458.218" style="fill:none;stroke:rgb(127,127,127);stroke-width:1.47px;"/>
        </g>
        <g transform="matrix(1.83695,0,0,1.83695,-2128.69,583.601)">
            <path d="M2882.64,101.279C2881.39,113.977 2889.57,129.294 2891.66,134.008" style="fill:none;stroke:rgb(127,127,127);stroke-width:1.36px;"/>
        </g>
        <g transform="matrix(1.83695,0,0,1.83695,-2128.69,583.601)">
            <path d="M2869.61,126.547C2869.61,126.547 2871.01,112.217 2870.21,101.824" style="fill:none;stroke:rgb(127,127,127);stroke-width:1.36px;"/>
        </g>
        <g transform="matrix(1.4103,0,0,1.4103,-907.76,-316.472)">
            <path d="M2789.61,757.043C2789.61,757.043 2798.97,765.442 2803.88,761.616C2809.32,757.379 2800.07,756.838 2794.09,756.892C2791.56,756.914 2789.61,757.043 2789.61,757.043Z" style="fill:rgb(127,127,127);"/>
        </g>
        <g transform="matrix(-1.4103,0,0,1.4103,7012.75,-316.472)">
            <path d="M2789.61,757.043C2789.61,757.043 2798.97,765.442 2803.88,761.616C2811.63,755.586 2789.61,757.043 2789.61,757.043Z" style="fill:rgb(127,127,127);"/>
        </g>
        <g transform="matrix(1.83695,0,0,1.83695,-2090.69,-638.436)">
            <path d="M2731.42,670.321C2731.42,670.321 2712.78,696.537 2755.78,693.257C2785.6,690.982 2779.11,677.977 2777.37,668.682C2775.64,659.387 2731.42,670.321 2731.42,670.321Z" style="fill:none;stroke:rgb(127,127,127);stroke-width:1.47px;"/>
        </g>
        <g transform="matrix(1.83695,0,0,1.83695,-2102.13,-639.038)">
            <path d="M2733.63,682.027L2729.93,684.43" style="fill:none;stroke:rgb(127,127,127);stroke-width:1.47px;"/>
        </g>
        <g transform="matrix(-1.83695,0,0,1.83695,8199.33,-639.038)">
            <path d="M2733.87,680.859L2727.99,682.427" style="fill:none;stroke:rgb(127,127,127);stroke-width:1.47px;"/>
        </g>
        <g transform="matrix(-1.83695,0,0,1.83695,8187.89,-635.247)">
            <path d="M2732.79,667.708C2732.79,667.708 2712.78,696.537 2755.78,693.257C2785.6,690.982 2781.08,678.931 2779.34,669.636C2777.61,660.341 2732.79,667.708 2732.79,667.708Z" style="fill:none;stroke:rgb(127,127,127);stroke-width:1.47px;"/>
        </g>
        <g transform="matrix(1.83695,0,0,1.83695,-2102.13,-639.038)">
            <path d="M2785.49,676.487C2785.49,676.487 2800.27,672.272 2806.15,672.473C2811.32,672.649 2820.77,677.692 2820.77,677.692" style="fill:none;stroke:rgb(127,127,127);stroke-width:1.47px;"/>
        </g>
    </g>
</svg>
