<?xml version="1.0" encoding="UTF-8" standalone="no"?>
<!DOCTYPE svg PUBLIC "-//W3C//DTD SVG 1.1//EN" "http://www.w3.org/Graphics/SVG/1.1/DTD/svg11.dtd">
<svg width="100%" height="100%" viewBox="0 0 421 511" version="1.1" xmlns="http://www.w3.org/2000/svg" xmlns:xlink="http://www.w3.org/1999/xlink" xml:space="preserve" xmlns:serif="http://www.serif.com/" style="fill-rule:evenodd;clip-rule:evenodd;stroke-linecap:round;stroke-linejoin:round;stroke-miterlimit:1.5;">
    <g transform="matrix(1,0,0,1,-227.003,-1520.96)">
        <g transform="matrix(-1.33452,0,0,-1.33452,3682.81,2980.85)">
            <path d="M2393.04,828.89C2391.74,828.158 2395.73,825.46 2397.54,824.97C2399.35,824.48 2401.75,825.815 2403.89,825.949C2406.16,826.093 2409.39,825.278 2411.15,825.829C2412.66,826.303 2415.4,828.666 2414.43,829.256C2413.47,829.845 2408.39,829.418 2405.36,829.366C2401.8,829.306 2394.35,829.623 2393.04,828.89Z" style="fill:rgb(127,127,127);"/>
        </g>
        <g transform="matrix(1.88552,0,0,1.88552,-4064.26,305.666)">
            <path d="M2398.51,821.086C2398.51,821.086 2394.29,821.003 2390.49,820.385C2388.5,820.062 2386.63,819.608 2385.61,818.907C2385.3,818.699 2384.89,818.776 2384.68,819.078C2384.48,819.379 2384.55,819.792 2384.86,819.999C2385.99,820.78 2388.07,821.334 2390.28,821.694C2394.17,822.326 2398.49,822.412 2398.49,822.412C2398.85,822.419 2399.16,822.128 2399.16,821.762C2399.17,821.396 2398.88,821.094 2398.51,821.086Z" style="fill:rgb(127,127,127);"/>
        </g>
        <g transform="matrix(-1.88552,0,0,1.88552,5019.06,306.05)">
            <path d="M2398.5,821.749C2398.5,821.749 2389.03,821.621 2387.39,819.364" style="fill:none;stroke:rgb(127,127,127);stroke-width:1.33px;"/>
        </g>
        <g transform="matrix(-2.24993,0,0,2.24993,2616.71,195.609)">
            <path d="M1003.93,677.52C1003.19,677.466 1000.08,674.69 996.334,674.567C990.673,674.382 983.621,675.235 977.415,676.367C974.157,676.962 969.97,678.976 967.39,679.992" style="fill:none;stroke:rgb(127,127,127);stroke-width:1.11px;"/>
        </g>
        <g transform="matrix(-2.24993,0,0,2.24993,2760.91,195.609)">
            <path d="M1001.6,679.992C995.94,679.325 988.631,677.199 979.475,675.412C976.066,674.747 968.95,674.724 966.955,677.687" style="fill:none;stroke:rgb(127,127,127);stroke-width:1.11px;"/>
        </g>
        <g transform="matrix(-1.99016,0,0,1.99016,2359.54,352.538)">
            <path d="M989.859,675.979C982.194,675.076 979.926,672.172 966.189,679.116" style="fill:none;stroke:rgb(127,127,127);stroke-width:1.26px;stroke-linecap:butt;"/>
        </g>
        <g transform="matrix(1.99016,0,0,1.99016,-1411.49,347.199)">
            <path d="M994.132,680.059C986.466,679.156 979.863,676.841 967.043,681.373" style="fill:none;stroke:rgb(127,127,127);stroke-width:1.26px;stroke-linecap:butt;"/>
        </g>
        <g transform="matrix(1.88552,0,0,1.88552,-4053.15,310.823)">
            <path d="M2382.13,818.692C2382.13,818.692 2393.26,816.57 2396.28,816.383C2397.65,816.298 2398.86,817.576 2400.24,817.572C2402.33,817.567 2405.95,816.09 2408.83,816.351C2412.29,816.666 2421.05,819.458 2421.05,819.458L2400.71,822.369L2382.13,818.692Z" style="fill:rgb(127,127,127);"/>
        </g>
        <g transform="matrix(2.83064,0,0,2.83064,-2134.85,-216.431)">
            <path d="M897.902,682.578C900.823,682.578 903.296,681.508 903.296,684.429C903.296,687.35 900.925,689.721 898.004,689.721C895.083,689.721 892.712,687.35 892.712,684.429C892.712,681.508 894.981,682.578 897.902,682.578Z" style="fill:rgb(127,127,127);"/>
        </g>
        <g transform="matrix(2.83064,0,0,2.83064,-1990.65,-216.431)">
            <path d="M897.902,682.578C900.823,682.578 903.296,681.508 903.296,684.429C903.296,687.35 900.925,689.721 898.004,689.721C895.083,689.721 892.712,687.35 892.712,684.429C892.712,683.077 893.045,683.885 893.857,683.742C894.799,683.575 896.333,682.578 897.902,682.578Z" style="fill:rgb(127,127,127);"/>
        </g>
        <g transform="matrix(0.764113,0,0,0.764113,-271.765,1200.36)">
            <circle cx="898.004" cy="684.429" r="5.292" style="fill:white;"/>
        </g>
        <g transform="matrix(0.764113,0,0,0.764113,-127.568,1200.36)">
            <circle cx="898.004" cy="684.429" r="5.292" style="fill:white;"/>
        </g>
        <g transform="matrix(2.25534,0,0,2.25534,-5536.79,13.2792)">
            <path d="M2664.42,760.941C2664.42,760.941 2667.69,767.066 2668.61,770.384C2669.87,774.938 2671,783.902 2671.99,788.265C2672.62,791.086 2675.3,792.788 2674.51,796.563C2674.11,798.491 2667.61,798.7 2667.91,798.847" style="fill:none;stroke:rgb(127,127,127);stroke-width:1.11px;"/>
        </g>
        <g transform="matrix(2.13676,0,0,2.13676,-5211.85,119.772)">
            <path d="M2654.96,784.897C2654.96,784.897 2652.55,787.83 2656.81,791.634" style="fill:none;stroke:rgb(127,127,127);stroke-width:1.07px;"/>
        </g>
        <g transform="matrix(2.01037,0,0,2.01037,-5384.23,1292.6)">
            <path d="M2905.44,119.112C2901.99,115.515 2860.9,117.105 2838.53,142.676C2828.14,154.553 2826.31,194.853 2829.41,209.388" style="fill:none;stroke:rgb(127,127,127);stroke-width:1.24px;"/>
        </g>
        <g transform="matrix(-2.01037,0,0,2.01037,6255.45,1292.6)">
            <path d="M2886.85,117.769C2881.71,106.954 2806.78,119.558 2805.51,172.797C2805.46,174.946 2809.33,211.509 2809.28,213.608" style="fill:none;stroke:rgb(127,127,127);stroke-width:1.24px;"/>
        </g>
        <g transform="matrix(-2.01037,0,0,2.01037,6029.64,1261.85)">
            <path d="M2776.64,163.803C2784.56,161.486 2837.58,182.639 2835.99,224.684" style="fill:none;stroke:rgb(127,127,127);stroke-width:1.24px;"/>
        </g>
        <g transform="matrix(2.96443,0,0,2.96443,-2793.32,-3824.14)">
            <path d="M1100.12,1823.35C1100.12,1823.35 1109.12,1819.03 1116.33,1826.33C1125.49,1835.6 1137.19,1833.47 1145.58,1849.24" style="fill:none;stroke:rgb(127,127,127);stroke-width:0.84px;"/>
        </g>
        <g transform="matrix(2.96443,0,0,2.96443,-2875.87,-3531.32)">
            <path d="M1083.81,1797.33C1085.74,1808.45 1105.89,1833.68 1126.67,1840.32C1130.12,1841.42 1155.63,1827.87 1160.61,1815.3C1163.31,1808.47 1174.05,1779.49 1174.95,1774.12C1175.85,1768.77 1173.19,1752.25 1173.42,1750.46" style="fill:none;stroke:rgb(127,127,127);stroke-width:0.84px;"/>
        </g>
        <g transform="matrix(2.01037,0,0,2.01037,-5449.98,1344.83)">
            <path d="M2889.08,297.064C2891.73,290.429 2896.47,272.708 2893.89,252.799" style="fill:none;stroke:rgb(127,127,127);stroke-width:1.24px;"/>
        </g>
        <g transform="matrix(-2.01037,0,0,2.01037,6372.65,1354.8)">
            <path d="M2895.53,289.501C2895.53,289.501 2902.39,277.024 2896.33,257.248" style="fill:none;stroke:rgb(127,127,127);stroke-width:1.24px;"/>
        </g>
        <g transform="matrix(2.01037,0,0,2.01037,-5355.9,1126.05)">
            <path d="M2829.67,294.2C2829.67,294.2 2821.99,286.448 2817.3,289.911C2812.6,293.375 2813.72,302.007 2814.25,307.013C2814.74,311.767 2820.44,319.948 2820.44,319.948C2821.77,327.335 2824.02,330.796 2826.71,332.856C2829.32,334.858 2836.57,332.303 2836.57,332.303" style="fill:none;stroke:rgb(127,127,127);stroke-width:1.24px;"/>
        </g>
        <g transform="matrix(2.01037,0,0,2.01037,-5351.59,1140.51)">
            <path d="M2822.3,304.993C2823.11,306.294 2824.83,307.493 2826.83,308.311" style="fill:none;stroke:rgb(127,127,127);stroke-width:1.24px;"/>
        </g>
        <g transform="matrix(2.01037,0,0,2.01037,-5351.59,1140.51)">
            <path d="M2827.01,295.59C2827.82,296.891 2826.66,315.868 2828.66,316.686" style="fill:none;stroke:rgb(127,127,127);stroke-width:1.24px;"/>
        </g>
        <g transform="matrix(1.72998,0,0,2.01037,-4563.01,1108.86)">
            <path d="M2847.26,402.004L2843.78,402.075L2834.97,407.718" style="fill:none;stroke:rgb(127,127,127);stroke-width:1.44px;"/>
        </g>
        <g transform="matrix(-1.72998,0,0,2.01037,5474.97,1108.86)">
            <path d="M2847.26,402.004L2843.78,402.075L2839.43,404.861L2841.32,408.222" style="fill:none;stroke:rgb(127,127,127);stroke-width:1.44px;"/>
        </g>
        <g transform="matrix(1.72998,0,0,2.01037,-4563.01,1108.86)">
            <path d="M2834.97,407.718L2863.85,431.958L2873.27,434.926L2868.81,445.911L2869.24,456.198L2849.3,450.502L2837.83,436.645L2830.23,425.827C2828.2,421.223 2828.19,415.819 2834.97,407.718Z" style="fill:none;stroke:rgb(127,127,127);stroke-width:1.44px;"/>
        </g>
        <g transform="matrix(-1.72998,0,0,2.01037,5479.05,1089.54)">
            <path d="M2843.68,417.835L2866.66,436.261L2877.22,444.259L2866.66,459.064L2857.39,453.978L2846.95,450.871L2842.32,437.342L2843.68,417.835Z" style="fill:none;stroke:rgb(127,127,127);stroke-width:1.44px;"/>
        </g>
        <g transform="matrix(1.72998,0,0,2.01037,-3731.73,1077.65)">
            <path d="M2389.98,459.892C2401.21,470.018 2393.26,474.891 2424.63,473.683C2431.79,473.408 2438.71,473.396 2444.91,469.84C2446.99,468.646 2452.32,461.731 2454.2,461.238" style="fill:none;stroke:rgb(127,127,127);stroke-width:1.44px;"/>
        </g>
        <g transform="matrix(1.72998,0,0,2.01037,-3731.73,1077.65)">
            <path d="M2481.88,443.257C2488.11,443.768 2500.56,444.792 2508.7,446.599C2516.25,448.278 2525.86,452.16 2530.67,454.1" style="fill:none;stroke:rgb(127,127,127);stroke-width:1.44px;"/>
        </g>
        <g transform="matrix(-1.72998,0,0,2.01037,4624.8,1075.25)">
            <path d="M2483.45,439.785C2487.89,441.99 2513.22,447.462 2517.65,449.667C2521.54,451.598 2537.44,459.155 2541.32,461.085" style="fill:none;stroke:rgb(127,127,127);stroke-width:1.44px;"/>
        </g>
        <g transform="matrix(2.01037,0,0,2.01037,-5182.89,-400.707)">
            <path d="M2728.99,1050.93C2724.94,1048.05 2716.85,1042.28 2715.8,1035.63C2715.57,1034.15 2715.45,1032.27 2715.43,1030.15" style="fill:none;stroke:rgb(127,127,127);stroke-width:1.14px;"/>
        </g>
        <g transform="matrix(2.01037,0,0,2.01037,-5182.89,-400.707)">
            <path d="M2715.99,1020.39C2716.84,1013.31 2719.91,1007.3 2721.62,1003.83C2724.28,998.419 2727.77,991.841 2732.51,993.63" style="fill:none;stroke:rgb(127,127,127);stroke-width:1.14px;"/>
        </g>
        <g transform="matrix(2.01037,0,0,2.01037,-5187.48,-378.192)">
            <path d="M2720,1000.2C2717.39,1000.89 2713.55,1004.42 2710.17,1010.83C2705.72,1019.28 2702.07,1032.74 2703.12,1051.37C2703.77,1063.07 2706.28,1076.82 2711.6,1092.64" style="fill:none;stroke:rgb(127,127,127);stroke-width:1.14px;"/>
        </g>
        <g transform="matrix(2.01037,0,0,2.01037,-5187.48,-378.192)">
            <path d="M2727.71,1068.52C2726.66,1058.93 2729.6,1053.58 2730.43,1055.84" style="fill:none;stroke:rgb(127,127,127);stroke-width:1.14px;"/>
        </g>
        <g transform="matrix(2.01037,0,0,2.01037,-5159.91,-355.148)">
            <path d="M2706.84,1120.32C2706.84,1120.32 2715.18,1114.87 2718.22,1109.12C2719.41,1106.87 2718.56,1094.57 2718.22,1089.39C2718.16,1088.38 2717.48,1086.09 2717.45,1085.95C2715.82,1079.04 2728.26,1072.19 2727.71,1068.52" style="fill:none;stroke:rgb(127,127,127);stroke-width:1.14px;"/>
        </g>
        <g transform="matrix(-2.01037,0,0,2.01037,5744.23,-378.192)">
            <path d="M2726.14,1108.4C2726.14,1108.4 2733.65,1094.58 2734.72,1086.96C2736.15,1076.79 2735.34,1050 2734.72,1047.36" style="fill:none;stroke:rgb(127,127,127);stroke-width:1.14px;"/>
        </g>
        <g transform="matrix(2.01037,0,0,2.01037,-5187.48,-378.192)">
            <path d="M2713.92,1113.27L2719.16,1121.45" style="fill:none;stroke:rgb(127,127,127);stroke-width:1.14px;"/>
        </g>
        <g transform="matrix(2.01037,0,0,2.01037,-5134.67,-410.087)">
            <path d="M2716.03,1105.19C2713.54,1114.91 2716.73,1131.51 2720.82,1133.23" style="fill:none;stroke:rgb(127,127,127);stroke-width:1.14px;"/>
        </g>
        <g transform="matrix(2.01037,0,0,2.01037,-5134.67,-410.087)">
            <path d="M2715.15,1122.6C2713.93,1132.39 2711.4,1129.83 2715.15,1139.02" style="fill:none;stroke:rgb(127,127,127);stroke-width:1.14px;"/>
        </g>
    </g>
</svg>
