<?xml version="1.0" encoding="UTF-8" standalone="no"?>
<!DOCTYPE svg PUBLIC "-//W3C//DTD SVG 1.1//EN" "http://www.w3.org/Graphics/SVG/1.1/DTD/svg11.dtd">
<svg width="100%" height="100%" viewBox="0 0 470 565" version="1.1" xmlns="http://www.w3.org/2000/svg" xmlns:xlink="http://www.w3.org/1999/xlink" xml:space="preserve" xmlns:serif="http://www.serif.com/" style="fill-rule:evenodd;clip-rule:evenodd;stroke-linecap:round;stroke-linejoin:round;stroke-miterlimit:1.5;">
    <g transform="matrix(1,0,0,1,-1545.61,-1538.21)">
        <g transform="matrix(0.617585,0,0,0.617585,1181.03,1332.05)">
            <circle cx="898.004" cy="684.429" r="5.292" style="fill:white;"/>
        </g>
        <g transform="matrix(1.21914,0.025129,-0.025129,1.21914,-1103.19,840.947)">
            <path d="M2393.04,828.89C2391.96,828.11 2395.04,826.48 2396.45,826.378C2398.26,826.247 2401.59,827.998 2403.87,828.105C2405.99,828.205 2408.37,826.832 2410.13,827.024C2411.74,827.199 2415.63,828.582 2414.43,829.256C2413.24,829.929 2406.5,831.123 2402.93,831.063C2399.56,831.005 2394.12,829.671 2393.04,828.89Z" style="fill:rgb(127,127,127);"/>
        </g>
        <g transform="matrix(1.7225,0.0355043,-0.0355043,1.7225,-2310.74,392.63)">
            <path d="M2408.92,822.275C2407.01,822.477 2403.83,822.446 2400.24,822.317C2392.64,822.045 2383.19,821.325 2379.74,821.349C2379.34,821.352 2379.01,821.679 2379.01,822.08C2379.02,822.48 2379.35,822.803 2379.75,822.8C2383.19,822.776 2392.61,823.496 2400.19,823.768C2403.87,823.899 2407.11,823.925 2409.08,823.718C2409.47,823.676 2409.76,823.319 2409.72,822.921C2409.68,822.523 2409.32,822.233 2408.92,822.275Z" style="fill:rgb(127,127,127);"/>
        </g>
        <g transform="matrix(-1.7225,-0.0355043,-0.0355043,1.7225,5987.23,564.019)">
            <path d="M2399.14,822.152C2399.14,822.152 2388.97,821.55 2385.05,820.52" style="fill:none;stroke:rgb(127,127,127);stroke-width:1.45px;"/>
        </g>
        <g transform="matrix(-2.05584,0,0,2.05584,3751.03,368.16)">
            <path d="M1001.37,672.105C995.841,671.454 979.592,671.614 970.668,672.034C968.243,672.148 966.529,672.168 966.976,677.805" style="fill:none;stroke:rgb(127,127,127);stroke-width:1.22px;"/>
        </g>
        <g transform="matrix(-2.05584,0,0,2.05584,3910.06,368.16)">
            <path d="M1001.37,672.105C995.841,671.454 979.592,671.614 970.668,672.034C968.243,672.148 966.529,672.168 966.976,677.805" style="fill:none;stroke:rgb(127,127,127);stroke-width:1.22px;"/>
        </g>
        <g transform="matrix(-1.81848,0,0,1.81848,3520.6,503.129)">
            <path d="M991.833,678.028C985.594,677.293 983.188,677.543 975.959,677.905C974.261,677.989 972.535,678.259 970.106,678.9" style="fill:none;stroke:rgb(127,127,127);stroke-width:1.37px;stroke-linecap:butt;"/>
        </g>
        <g transform="matrix(-1.81848,0,0,1.81848,3520.6,503.129)">
            <path d="M991.833,678.028C985.594,677.293 983.188,677.543 975.959,677.905C974.261,677.989 972.535,678.259 970.106,678.9" style="fill:none;stroke:rgb(127,127,127);stroke-width:1.37px;stroke-linecap:butt;"/>
        </g>
        <g transform="matrix(-1.81848,0,0,1.81848,3677.66,503.129)">
            <path d="M991.833,678.028C985.594,677.293 983.188,677.543 975.959,677.905C974.261,677.989 972.535,678.259 970.106,678.9" style="fill:none;stroke:rgb(127,127,127);stroke-width:1.37px;stroke-linecap:butt;"/>
        </g>
        <g transform="matrix(2.58645,0,0,2.58645,-584.969,-8.33471)">
            <circle cx="898.004" cy="684.429" r="5.292" style="fill:rgb(127,127,127);"/>
        </g>
        <g transform="matrix(2.58645,0,0,2.58645,-422.786,-8.33471)">
            <circle cx="898.004" cy="684.429" r="5.292" style="fill:rgb(127,127,127);"/>
        </g>
        <g transform="matrix(0.698196,0,0,0.698196,1117.26,1280.9)">
            <circle cx="898.004" cy="684.429" r="5.292" style="fill:white;"/>
        </g>
        <g transform="matrix(0.698196,0,0,0.698196,1279.44,1280.9)">
            <circle cx="898.004" cy="684.429" r="5.292" style="fill:white;"/>
        </g>
        <g transform="matrix(2.06078,0,0,2.06078,-3690.25,204.489)">
            <path d="M2672.06,749.915C2672.06,749.915 2668.37,759.885 2668.8,764.963C2669.23,770.041 2673.07,775.501 2674.65,780.382C2676.12,784.928 2679.07,790.475 2678.28,794.25C2677.07,800.091 2667.91,798.847 2667.91,798.847" style="fill:none;stroke:rgb(127,127,127);stroke-width:1.21px;"/>
        </g>
        <g transform="matrix(1.95243,0,0,1.95243,-3393.34,301.795)">
            <path d="M2654.96,784.897C2654.96,784.897 2652.55,787.83 2656.81,791.634" style="fill:none;stroke:rgb(127,127,127);stroke-width:1.39px;"/>
        </g>
        <g transform="matrix(1.83695,0,0,1.83695,-3753.57,1371.68)">
            <path d="M3014.27,98.038C3055.32,79.387 3103.28,101.015 3113.17,145.839" style="fill:none;stroke:rgb(127,127,127);stroke-width:1.36px;"/>
        </g>
        <g transform="matrix(1.83695,0,0,1.83695,-3610.93,1421.18)">
            <path d="M2837.85,172.312C2837.85,172.312 2836.46,185.755 2847.7,222.797C2849.34,228.2 2853.4,241.054 2855.55,247.189" style="fill:none;stroke:rgb(127,127,127);stroke-width:1.36px;"/>
        </g>
        <g transform="matrix(-1.83695,0,0,1.83695,6878.39,1345.35)">
            <path d="M2785.78,146.929C2790.29,161.256 2801.25,168.644 2811.07,173.206C2818.35,176.588 2822.02,193.915 2826.09,199.874C2830.92,206.953 2836.12,213.73 2841.9,219.316" style="fill:none;stroke:rgb(127,127,127);stroke-width:1.36px;"/>
        </g>
        <g transform="matrix(2.70871,0,0,2.70871,-1258.87,-3034.34)">
            <path d="M1074.95,1796.84C1075.92,1802.78 1085.91,1818.26 1093.94,1825.41" style="fill:none;stroke:rgb(127,127,127);stroke-width:0.92px;"/>
        </g>
        <g transform="matrix(2.70871,0,0,2.70871,-1183.45,-3301.89)">
            <path d="M1086.89,1810.94C1086.89,1810.94 1087.29,1826.93 1094.5,1834.23C1103.66,1843.5 1115.35,1840.06 1122.04,1838.53" style="fill:none;stroke:rgb(127,127,127);stroke-width:0.92px;"/>
        </g>
        <g transform="matrix(2.70871,0,0,2.70871,-1127.65,-3299.21)">
            <path d="M1082.43,1814.32C1082.43,1814.32 1085.98,1823.81 1093.19,1831.1C1098.81,1836.79 1108.97,1841.18 1117.52,1843.36C1122.91,1844.73 1133.54,1845.65 1139.57,1853.57" style="fill:none;stroke:rgb(127,127,127);stroke-width:0.92px;"/>
        </g>
        <g transform="matrix(2.70871,0,0,2.70871,-1081.91,-3299.21)">
            <path d="M1104.18,1809.95C1128.76,1814.96 1128.21,1847.1 1126.57,1853.57" style="fill:none;stroke:rgb(127,127,127);stroke-width:0.92px;"/>
        </g>
        <g transform="matrix(2.70871,0,0,2.70871,-1258.87,-3034.34)">
            <path d="M1098.68,1829.41C1105.02,1834.2 1111.93,1842.08 1117.23,1844.98C1121.14,1847.11 1126.07,1846.57 1130.47,1846.77C1134.86,1846.97 1140.03,1848.7 1143.62,1846.17C1148.87,1842.49 1152.97,1835.94 1161.94,1824.68C1171.03,1813.26 1179.78,1800.59 1184.08,1767.21" style="fill:none;stroke:rgb(127,127,127);stroke-width:0.92px;"/>
        </g>
        <g transform="matrix(1.83695,0,0,1.83695,-3979.26,1311.28)">
            <path d="M3039.16,221.566C3041.76,155.014 3089.26,114.148 3127.41,129.957C3130.92,131.411 3130.51,135.229 3130.56,140.56" style="fill:none;stroke:rgb(127,127,127);stroke-width:1.36px;"/>
        </g>
        <g transform="matrix(1.83695,0,0,1.83695,-3543.74,1444.62)">
            <path d="M2820.9,205.571C2822.83,215.569 2815.84,219.256 2818.9,234.033" style="fill:none;stroke:rgb(127,127,127);stroke-width:1.36px;"/>
        </g>
        <g transform="matrix(1.83695,0,0,1.83695,-3610.93,1421.18)">
            <path d="M3035.52,178.017C3035.52,178.017 3034.14,199.448 3027.49,203.273" style="fill:none;stroke:rgb(127,127,127);stroke-width:1.36px;"/>
        </g>
        <g transform="matrix(1.83695,0,0,1.83695,-3610.93,1421.18)">
            <path d="M2869.62,105.65C2869.62,105.65 2863.55,108.341 2860.65,118.897" style="fill:none;stroke:rgb(127,127,127);stroke-width:1.36px;"/>
        </g>
        <g transform="matrix(1.83695,0,0,1.83695,-3610.93,1421.18)">
            <path d="M2807.8,330.557C2809.06,329.824 2828.78,323.776 2836.69,319.721C2847.15,314.358 2858.35,310.412 2865.55,308.133" style="fill:none;stroke:rgb(127,127,127);stroke-width:1.36px;"/>
        </g>
        <g transform="matrix(1.83695,0,0,1.83695,-3610.93,1421.18)">
            <path d="M2875.37,294.152C2876.93,283.018 2878.43,265.052 2876.05,245.129" style="fill:none;stroke:rgb(127,127,127);stroke-width:1.36px;"/>
        </g>
        <g transform="matrix(-1.83695,0,0,1.83695,7191.82,1430.28)">
            <path d="M2818.94,334.573C2835.65,331.867 2861.8,314.813 2871.82,310.978" style="fill:none;stroke:rgb(127,127,127);stroke-width:1.36px;"/>
        </g>
        <g transform="matrix(-1.83695,0,0,1.83695,7191.82,1430.28)">
            <path d="M2882.53,298.369C2882.93,296.259 2883.38,293.735 2883.87,290.737C2885.05,283.549 2883.68,271.536 2884.23,257.519" style="fill:none;stroke:rgb(127,127,127);stroke-width:1.36px;"/>
        </g>
        <g transform="matrix(1.83695,0,0,1.83695,-3556.4,1194.81)">
            <path d="M2834.26,296.815C2834.26,296.815 2828.13,281.503 2823.44,284.966C2818.74,288.43 2817.42,297.187 2817.33,302.442C2817.24,307.478 2822.89,316.491 2822.89,316.491C2821.41,321.806 2826.29,329.704 2830.11,333.534L2834.14,325.62" style="fill:none;stroke:rgb(127,127,127);stroke-width:1.36px;"/>
        </g>
        <g transform="matrix(1.83695,0,0,1.83695,-3556.4,1194.81)">
            <path d="M2827.8,299.405C2827.8,299.405 2831.45,307.509 2830.97,311.22C2830.48,314.93 2830.97,317.217 2830.97,317.217" style="fill:none;stroke:rgb(127,127,127);stroke-width:1.36px;"/>
        </g>
        <g transform="matrix(1.83695,0,0,1.83695,-3556.4,1194.81)">
            <path d="M2823.8,306.095C2824.61,307.396 2824.83,307.493 2826.83,308.311" style="fill:none;stroke:rgb(127,127,127);stroke-width:1.36px;"/>
        </g>
        <g transform="matrix(1.83695,0,0,1.83695,-3556.4,1194.81)">
            <path d="M2847.05,401.804L2843.78,402.075L2834.97,407.718" style="fill:none;stroke:rgb(127,127,127);stroke-width:1.47px;"/>
        </g>
        <g transform="matrix(-1.83695,0,0,1.83695,7116.27,1219.7)">
            <path d="M2842.86,402.129L2834.97,407.718" style="fill:none;stroke:rgb(127,127,127);stroke-width:1.47px;"/>
        </g>
        <g transform="matrix(1.83695,0,0,1.83695,-3556.4,1194.81)">
            <path d="M2834.97,407.718L2866.66,436.261L2877.22,444.259L2866.66,459.064L2852.67,460.114L2847.89,442.641L2830.23,425.827C2828.2,421.223 2828.19,415.819 2834.97,407.718Z" style="fill:none;stroke:rgb(127,127,127);stroke-width:1.47px;"/>
        </g>
        <g transform="matrix(-1.83695,0,0,1.83695,7141.14,1194.81)">
            <path d="M2848.28,421.03L2866.66,436.261L2877.22,444.259L2866.66,459.064L2852.67,460.114L2847.89,442.641L2842.32,437.342L2848.28,421.03Z" style="fill:none;stroke:rgb(127,127,127);stroke-width:1.47px;"/>
        </g>
        <g transform="matrix(1.83695,0,0,1.83695,-3556.4,1194.81)">
            <path d="M2872.46,450.875C2876.38,468.539 2913.61,493.97 2918.86,493.349C2924.48,492.685 2945.18,472.882 2950.87,451.178" style="fill:none;stroke:rgb(127,127,127);stroke-width:1.47px;"/>
        </g>
    </g>
</svg>
