<?xml version="1.0" encoding="UTF-8" standalone="no"?>
<!DOCTYPE svg PUBLIC "-//W3C//DTD SVG 1.1//EN" "http://www.w3.org/Graphics/SVG/1.1/DTD/svg11.dtd">
<svg width="100%" height="100%" viewBox="0 0 470 534" version="1.1" xmlns="http://www.w3.org/2000/svg" xmlns:xlink="http://www.w3.org/1999/xlink" xml:space="preserve" xmlns:serif="http://www.serif.com/" style="fill-rule:evenodd;clip-rule:evenodd;stroke-linecap:round;stroke-linejoin:round;stroke-miterlimit:1.5;">
    <g transform="matrix(1,0,0,1,-2783.25,-1509.76)">
        <g>
            <g transform="matrix(0.617585,0,0,0.617585,2417.08,1268.51)">
                <circle cx="898.004" cy="684.429" r="5.292" style="fill:white;"/>
            </g>
            <g transform="matrix(1.21914,0.025129,-0.025129,1.21914,134.456,781.338)">
                <path d="M2385.55,826.829C2385.02,825.785 2393.26,826.727 2396.45,826.378C2399.24,826.073 2402.41,824.628 2404.69,824.735C2406.66,824.828 2408.17,826.877 2410.13,827.024C2413.14,827.249 2422.82,825.16 2422.72,826.089C2422.62,827.018 2414.43,832.503 2409.53,832.6C2407.14,832.648 2403.53,833.575 2399.64,832.644C2393.47,831.164 2386.09,827.874 2385.55,826.829Z" style="fill:rgb(127,127,127);"/>
            </g>
            <g transform="matrix(1.7225,0.0355043,-0.0355043,1.7225,-1073.1,333.021)">
                <path d="M2408.92,822.275C2408.32,822.339 2407.57,822.182 2406.71,821.94C2405.1,821.489 2403.15,820.729 2401.05,820.203C2399.86,819.905 2398.61,819.681 2397.35,819.623C2395.55,819.54 2393.71,819.654 2391.91,819.872C2386.77,820.497 2382.02,822.006 2379.77,822.022C2379.37,822.024 2379.05,822.352 2379.05,822.752C2379.06,823.153 2379.38,823.475 2379.78,823.473C2382.06,823.457 2386.88,821.946 2392.09,821.313C2393.8,821.104 2395.56,820.994 2397.28,821.073C2401.31,821.257 2405.14,823.237 2407.68,823.653C2408.19,823.736 2408.66,823.762 2409.08,823.718C2409.47,823.676 2409.76,823.319 2409.72,822.921C2409.68,822.523 2409.32,822.233 2408.92,822.275Z" style="fill:rgb(127,127,127);"/>
            </g>
            <g transform="matrix(1.83695,0,0,1.83695,-2145.7,433.528)">
                <path d="M2810.6,760.911C2812.31,759.78 2815.72,757.516 2818.24,757.728C2820.75,757.94 2824.24,761.325 2825.69,762.183C2826.09,762.422 2827.37,762.942 2826.91,762.875C2826.64,762.837 2826.39,763.272 2825.9,763.177C2823.38,762.689 2818.24,761.08 2815.99,760.788C2814.26,760.565 2811.93,760.714 2810.76,760.788" style="fill:rgb(127,127,127);"/>
            </g>
            <g transform="matrix(-1.39808,0,0,1.83695,7006.44,436.09)">
                <path d="M2810.6,760.911C2811.94,759.47 2814.61,756.587 2816.51,756.35C2818.4,756.113 2820.79,758.474 2821.97,759.489C2822.83,760.22 2824.61,762.22 2823.61,762.437C2822.61,762.653 2818.13,761.063 2815.99,760.788C2814.26,760.567 2811.93,760.715 2810.76,760.788" style="fill:rgb(127,127,127);"/>
            </g>
            <g transform="matrix(5.259,0.108399,-0.0355043,1.7225,-9514.52,-61.6824)">
                <path d="M2408.36,829.009C2406.39,829.216 2400.99,827.264 2396.49,826.4C2395.43,826.195 2394.41,826.051 2393.5,826.01C2391.84,825.933 2390.23,826.113 2388.71,826.432C2383.89,827.444 2379.94,829.864 2377.64,829.88C2377.51,829.881 2377.41,830.207 2377.41,830.607C2377.41,831.007 2377.51,831.332 2377.64,831.331C2379.95,831.315 2383.91,828.894 2388.74,827.88C2390.25,827.563 2391.84,827.385 2393.5,827.461C2394.4,827.502 2395.41,827.645 2396.46,827.848C2400.98,828.716 2406.4,830.667 2408.37,830.459C2408.5,830.446 2408.61,830.109 2408.6,829.709C2408.6,829.309 2408.49,828.995 2408.36,829.009Z" style="fill:rgb(127,127,127);"/>
            </g>
            <g transform="matrix(5.259,0.108399,-0.0355043,1.7225,-9514.52,-48.4612)">
                <path d="M2404.9,827.503C2404.26,827.57 2403.51,827.491 2402.65,827.337C2400.25,826.903 2397.09,825.869 2393.58,825.708C2391.68,825.621 2390.19,825.766 2388.96,826.025C2385.69,826.713 2384.32,828.211 2382.12,828.226C2381.99,828.227 2381.88,828.553 2381.88,828.953C2381.88,829.354 2381.99,829.678 2382.12,829.677C2384.33,829.662 2385.71,828.163 2388.99,827.472C2390.21,827.216 2391.69,827.072 2393.58,827.159C2397.07,827.319 2400.23,828.353 2402.62,828.786C2403.49,828.943 2404.26,829.021 2404.91,828.953C2405.05,828.939 2405.15,828.603 2405.14,828.203C2405.14,827.803 2405.03,827.489 2404.9,827.503Z" style="fill:rgb(127,127,127);"/>
            </g>
            <g transform="matrix(5.259,0.108399,-0.0355043,1.7225,-9514.52,-77.9767)">
                <path d="M2404.95,829.179C2403.13,829.37 2400.32,827.438 2397.03,826.377C2395.93,826.022 2394.77,825.763 2393.58,825.708C2391.68,825.621 2390.19,825.766 2388.96,826.025C2385.69,826.713 2384.32,828.211 2382.12,828.226C2381.99,828.227 2381.88,828.553 2381.88,828.953C2381.88,829.354 2381.99,829.678 2382.12,829.677C2384.33,829.662 2385.71,828.163 2388.99,827.472C2390.21,827.216 2391.69,827.072 2393.58,827.159C2394.75,827.213 2395.89,827.469 2396.98,827.82C2400.3,828.89 2403.13,830.822 2404.97,830.629C2405.1,830.615 2405.2,830.279 2405.2,829.879C2405.19,829.479 2405.08,829.165 2404.95,829.179Z" style="fill:rgb(127,127,127);"/>
            </g>
            <g transform="matrix(-1.7225,-0.0355043,-0.0355043,1.7225,7224.88,504.41)">
                <path d="M2401.25,822.657C2401.25,822.657 2397.34,820.361 2394.66,820.126C2391.47,819.847 2387.18,821.079 2385.05,820.52" style="fill:none;stroke:rgb(127,127,127);stroke-width:1.45px;"/>
            </g>
            <g transform="matrix(-2.04275,0.231594,0.231594,2.04275,4826.13,86.6532)">
                <path d="M1001.97,675.106C1002.04,672.43 1000.92,669.601 998.116,669.593C991.786,669.576 975.567,671.804 970.668,672.034C968.243,672.148 966.529,672.168 966.976,677.805" style="fill:none;stroke:rgb(127,127,127);stroke-width:1.22px;"/>
            </g>
            <g transform="matrix(-2.04275,0.231594,0.231594,2.04275,4966.63,86.6532)">
                <path d="M1001.97,675.106C1002.04,672.43 1000.92,669.601 998.116,669.593C991.786,669.576 975.567,671.804 970.668,672.034C968.243,672.148 966.529,672.168 966.976,677.805" style="fill:none;stroke:rgb(127,127,127);stroke-width:1.22px;"/>
            </g>
            <g transform="matrix(-1.81848,0,0,1.81848,4756.64,439.587)">
                <path d="M991.833,678.028C985.594,677.293 983.188,677.543 975.959,677.905C974.261,677.989 972.535,678.259 970.106,678.9" style="fill:none;stroke:rgb(127,127,127);stroke-width:1.37px;stroke-linecap:butt;"/>
            </g>
            <g transform="matrix(-1.81848,0,0,1.81848,4756.64,439.587)">
                <path d="M991.833,678.028C985.594,677.293 983.188,677.543 975.959,677.905C974.261,677.989 972.535,678.259 970.106,678.9" style="fill:none;stroke:rgb(127,127,127);stroke-width:1.37px;stroke-linecap:butt;"/>
            </g>
            <g transform="matrix(-1.81848,0,0,1.81848,4906.01,439.587)">
                <path d="M991.833,678.028C985.594,677.293 983.188,677.543 975.959,677.905C974.261,677.989 972.535,678.259 970.106,678.9" style="fill:none;stroke:rgb(127,127,127);stroke-width:1.37px;stroke-linecap:butt;"/>
            </g>
            <g transform="matrix(2.58645,0,0,2.58645,661.494,-79.4979)">
                <path d="M898.004,681.875C900.925,681.875 903.296,681.508 903.296,684.429C903.296,687.35 900.925,689.721 898.004,689.721C895.083,689.721 892.712,687.35 892.712,684.429C892.712,681.508 895.083,681.875 898.004,681.875Z" style="fill:rgb(127,127,127);"/>
            </g>
            <g transform="matrix(2.58645,0,0,2.58645,801.993,-79.4979)">
                <path d="M898.004,681.875C900.925,681.875 903.296,681.508 903.296,684.429C903.296,687.35 900.925,689.721 898.004,689.721C895.083,689.721 892.712,687.35 892.712,684.429C892.712,681.508 895.083,681.875 898.004,681.875Z" style="fill:rgb(127,127,127);"/>
            </g>
            <g transform="matrix(0.698196,0,0,0.698196,2364.44,1214.7)">
                <circle cx="898.004" cy="684.429" r="5.292" style="fill:white;"/>
            </g>
            <g transform="matrix(0.698196,0,0,0.698196,2504.94,1214.7)">
                <circle cx="898.004" cy="684.429" r="5.292" style="fill:white;"/>
            </g>
            <g transform="matrix(2.06078,0,0,2.06078,-2452.61,144.88)">
                <path d="M2672.06,749.915C2672.06,749.915 2671.94,757.97 2672.65,761.909C2673.49,766.59 2676.19,773.281 2677.13,778C2677.93,782.013 2679.07,786.446 2678.28,790.22C2677.07,796.061 2667.91,794.817 2667.91,794.817" style="fill:none;stroke:rgb(127,127,127);stroke-width:1.21px;"/>
            </g>
            <g transform="matrix(1.95243,0,0,1.95243,-2155.7,242.186)">
                <path d="M2652.31,781.493C2652.31,781.493 2652.55,783.577 2656.81,787.381" style="fill:none;stroke:rgb(127,127,127);stroke-width:1.39px;"/>
            </g>
            <g transform="matrix(1.83695,0,0,1.83695,-2373.29,1361.57)">
                <path d="M2807.8,330.557C2809.06,329.824 2828.78,323.776 2836.69,319.721C2847.15,314.358 2858.35,310.412 2865.55,308.133" style="fill:none;stroke:rgb(127,127,127);stroke-width:1.36px;"/>
            </g>
            <g transform="matrix(1.83695,0,0,1.83695,-2373.29,1361.57)">
                <path d="M2875.37,294.152C2876.93,283.018 2879.2,267.122 2876.82,247.2" style="fill:none;stroke:rgb(127,127,127);stroke-width:1.36px;"/>
            </g>
            <g transform="matrix(-1.83695,0,0,1.83695,8429.46,1370.67)">
                <path d="M2818.94,334.573C2835.65,331.867 2861.8,314.813 2871.82,310.978" style="fill:none;stroke:rgb(127,127,127);stroke-width:1.36px;"/>
            </g>
            <g transform="matrix(-1.83695,0,0,1.83695,8429.46,1370.67)">
                <path d="M2882.53,298.369C2882.93,296.259 2883.38,293.735 2883.87,290.737C2885.05,283.549 2885.41,275.495 2884.38,260.075" style="fill:none;stroke:rgb(127,127,127);stroke-width:1.36px;"/>
            </g>
            <g transform="matrix(1.83695,0,0,1.83695,-2318.76,1135.2)">
                <path d="M2829.67,294.2C2829.67,294.2 2821.99,286.448 2817.3,289.911C2812.6,293.375 2813.91,303.771 2814.93,309.016C2815.88,313.92 2823.41,321.379 2823.41,321.379C2821.93,326.693 2824.53,333.11 2828.36,336.94L2836.57,332.303" style="fill:none;stroke:rgb(127,127,127);stroke-width:1.36px;"/>
            </g>
            <g transform="matrix(1.83695,0,0,1.83695,-2314.82,1148.42)">
                <path d="M2825.26,298.748C2825.26,298.748 2829.41,309.27 2828.92,312.98C2828.43,316.691 2829.48,318.623 2829.48,318.623" style="fill:none;stroke:rgb(127,127,127);stroke-width:1.36px;"/>
            </g>
            <g transform="matrix(1.83695,0,0,1.83695,-2314.82,1148.42)">
                <path d="M2822.3,304.993C2823.11,306.294 2825.99,307.659 2828,308.477" style="fill:none;stroke:rgb(127,127,127);stroke-width:1.36px;"/>
            </g>
            <g transform="matrix(1.83695,0,0,1.83695,-2318.76,1135.2)">
                <path d="M2847.05,401.804C2847.05,401.804 2842.9,402.548 2841.03,403.463C2839.01,404.449 2834.97,407.718 2834.97,407.718" style="fill:none;stroke:rgb(127,127,127);stroke-width:1.47px;"/>
            </g>
            <g transform="matrix(-1.83695,0,0,1.83695,8353.91,1160.09)">
                <path d="M2842.86,402.129L2834.97,407.718" style="fill:none;stroke:rgb(127,127,127);stroke-width:1.47px;"/>
            </g>
            <g transform="matrix(1.83695,0,0,1.83695,-2318.76,1135.2)">
                <path d="M2834.97,407.718L2866.66,436.261L2877.22,444.259L2866.66,459.064L2852.67,460.114L2847.89,442.641L2830.23,425.827C2828.2,421.223 2828.19,415.819 2834.97,407.718Z" style="fill:none;stroke:rgb(127,127,127);stroke-width:1.47px;"/>
            </g>
            <g transform="matrix(-1.83695,0,0,1.83695,8378.78,1135.2)">
                <path d="M2848.28,421.03L2866.66,436.261L2877.22,444.259L2866.66,459.064L2852.67,460.114L2847.89,442.641L2842.32,437.342L2848.28,421.03Z" style="fill:none;stroke:rgb(127,127,127);stroke-width:1.47px;"/>
            </g>
            <g transform="matrix(1.83695,0,0,1.83695,-2318.76,1135.2)">
                <path d="M2872.46,450.875C2876.38,468.539 2913.61,493.97 2918.86,493.349C2924.48,492.685 2945.18,472.882 2950.87,451.178" style="fill:none;stroke:rgb(127,127,127);stroke-width:1.47px;"/>
            </g>
            <g transform="matrix(1.83695,0,0,1.83695,-2843.12,498.493)">
                <path d="M3255.81,727.937C3252.87,733.816 3249.15,739.737 3249.15,739.737C3245.74,745.608 3241.48,750.769 3235.89,754.798C3232.12,758.129 3226.99,759.492 3221.38,760.143C3214.15,761.804 3205.64,762.846 3195.81,763.25L3184.11,762.123L3174.52,756.629L3165.04,746.393L3157.81,739.745L3146.66,729.114C3141.93,726.282 3136.92,722.062 3131.24,714.522L3125.76,707.23L3123.87,699.674C3121.88,694.171 3119.84,688.54 3119.35,682.707C3119.3,682.08 3118.72,680.802 3119.14,680.308C3119.86,679.486 3121.8,679.502 3122.11,678.502C3123.3,674.711 3125.27,670.991 3125.27,670.991C3125.27,670.991 3125.38,687.014 3125.87,689.431C3130.28,711.124 3153.94,732.12 3158.21,728.076C3165.35,711.999 3207.07,711.44 3209.54,711.42C3212.14,711.4 3244.93,713.772 3253.31,722.368C3262.27,709.905 3263.65,704.577 3264.6,697.086C3265.04,693.606 3267.64,677.909 3268.93,671.657C3269.64,668.248 3271.24,669.494 3271.24,669.494C3271.24,669.494 3270.72,673.707 3268.99,683.264C3268.97,688.315 3268.6,693.922 3266.47,702.334C3265.88,704.75 3265.3,707.18 3264.4,709.499C3260.97,718.389 3256.38,727.897 3255.81,727.937ZM3249.01,725.603C3252.01,729.686 3245.51,736.993 3241.47,741.263C3236.28,746.755 3233.82,751.743 3231.19,751.801C3220.38,752.04 3221.93,752.581 3212.17,752.951C3202.96,753.3 3189.93,760.398 3180.9,754.333C3178.04,752.409 3170.01,739.926 3168.51,738.255C3166.68,736.205 3164.43,734.488 3163.02,732.13C3159.93,726.996 3172.18,721.355 3174.75,720.865C3180.67,719.733 3186.8,717.205 3192.99,716.509C3194.9,716.293 3204.59,719.007 3206.51,718.861C3214.85,718.229 3215.44,715.418 3223.48,716.76C3230.43,717.921 3246.01,721.519 3249.01,725.603Z" style="fill:rgb(127,127,127);"/>
            </g>
            <g transform="matrix(2.70871,0,0,2.70871,-21.2288,-3093.95)">
                <path d="M1073.38,1787.85C1073.63,1789.37 1076.21,1801.95 1077.75,1805.11C1082.17,1814.24 1089.27,1818.65 1095.23,1823.97C1096.69,1825.27 1099.01,1827.38 1099.73,1827.92C1106.07,1832.71 1109.54,1839.45 1114.79,1842.06C1119.73,1844.5 1125.75,1843.86 1131.26,1843.56C1136.9,1843.24 1143.02,1841.88 1148.69,1840.18C1154.3,1838.48 1162.84,1830.65 1172.32,1805.83C1175.88,1796.48 1174.66,1790.09 1175.41,1787C1176.52,1782.41 1177.81,1777.99 1179.67,1762.34C1178.23,1741.78 1179.22,1731.19 1171.57,1720.93C1150.11,1692.14 1111.33,1698.42 1092.17,1708.59C1070.48,1720.09 1065.95,1737.31 1065.78,1757.03" style="fill:none;stroke:rgb(127,127,127);stroke-width:0.92px;"/>
            </g>
        </g>
    </g>
</svg>
