<?xml version="1.0" encoding="UTF-8" standalone="no"?>
<!DOCTYPE svg PUBLIC "-//W3C//DTD SVG 1.1//EN" "http://www.w3.org/Graphics/SVG/1.1/DTD/svg11.dtd">
<svg width="100%" height="100%" viewBox="0 0 463 556" version="1.1" xmlns="http://www.w3.org/2000/svg" xmlns:xlink="http://www.w3.org/1999/xlink" xml:space="preserve" xmlns:serif="http://www.serif.com/" style="fill-rule:evenodd;clip-rule:evenodd;stroke-linecap:round;stroke-linejoin:round;stroke-miterlimit:1.5;">
    <g transform="matrix(1,0,0,1,-205.818,-400.624)">
        <g transform="matrix(-1.2194,0,0,-1.2194,3398.61,1811.33)">
            <path d="M2393.04,828.89C2392.41,827.51 2397.35,823.273 2399.16,822.783C2400.97,822.293 2402.4,825.911 2403.89,825.949C2405.37,825.988 2406.45,822.508 2408.07,823.017C2409.83,823.568 2415.29,827.915 2414.43,829.256C2413.58,830.596 2406.5,831.123 2402.93,831.063C2399.56,831.005 2393.67,830.27 2393.04,828.89Z" style="fill:rgb(127,127,127);"/>
        </g>
        <g transform="matrix(1.72287,0,0,1.72287,-3680.16,-633.078)">
            <path d="M2398.56,821.026C2398.56,821.026 2392.5,820.51 2387.19,819.62C2384.08,819.097 2381.22,818.476 2380.11,817.717C2379.78,817.49 2379.33,817.574 2379.11,817.904C2378.88,818.234 2378.96,818.686 2379.29,818.913C2380.26,819.58 2382.45,820.202 2385.04,820.707C2390.74,821.816 2398.44,822.472 2398.44,822.472C2398.84,822.506 2399.19,822.21 2399.22,821.811C2399.26,821.412 2398.96,821.06 2398.56,821.026Z" style="fill:rgb(127,127,127);"/>
        </g>
        <g transform="matrix(-1.72287,0,0,1.72287,4619.59,-632.728)">
            <path d="M2398.5,821.749C2398.5,821.749 2385.65,821.254 2384.01,818.998" style="fill:none;stroke:rgb(127,127,127);stroke-width:1.45px;"/>
        </g>
        <g transform="matrix(-2.05584,0,0,2.05584,2409.09,-742.675)">
            <path d="M1003.45,676.923C995.788,676.02 975.718,666.123 968.104,677.43" style="fill:none;stroke:rgb(127,127,127);stroke-width:1.22px;"/>
        </g>
        <g transform="matrix(-1.81848,0,0,1.81848,2178.65,-607.706)">
            <path d="M1009.05,674.627C1001.38,673.724 978.861,671.422 966.189,679.116" style="fill:none;stroke:rgb(127,127,127);stroke-width:1.37px;stroke-linecap:butt;"/>
        </g>
        <g transform="matrix(1.81848,0,0,1.81848,-1251.07,-607.706)">
            <path d="M1009.05,674.627C1001.38,673.724 978.861,671.422 966.189,679.116" style="fill:none;stroke:rgb(127,127,127);stroke-width:1.37px;stroke-linecap:butt;"/>
        </g>
        <g transform="matrix(1.72287,0,0,1.72287,-3670.01,-628.366)">
            <path d="M2382.13,818.692C2382.13,818.692 2389.47,814.973 2392.78,814.467C2395.85,813.999 2399.01,815.67 2402,815.657C2404.95,815.643 2407.87,813.809 2410.76,814.386C2413.93,815.019 2421.05,819.458 2421.05,819.458L2400.71,822.369L2382.13,818.692Z" style="fill:rgb(127,127,127);"/>
        </g>
        <g transform="matrix(-2.05584,0,0,2.05584,2571.27,-742.675)">
            <path d="M1003.45,676.923C995.788,676.02 975.718,666.123 968.104,677.43" style="fill:none;stroke:rgb(127,127,127);stroke-width:1.22px;"/>
        </g>
        <g transform="matrix(2.58645,0,0,2.58645,-1926.91,-1119.17)">
            <circle cx="898.004" cy="684.429" r="5.292" style="fill:rgb(127,127,127);"/>
        </g>
        <g transform="matrix(2.58645,0,0,2.58645,-1764.73,-1119.17)">
            <circle cx="898.004" cy="684.429" r="5.292" style="fill:rgb(127,127,127);"/>
        </g>
        <g transform="matrix(0.698196,0,0,0.698196,-224.687,170.064)">
            <circle cx="898.004" cy="684.429" r="5.292" style="fill:white;"/>
        </g>
        <g transform="matrix(0.698196,0,0,0.698196,-62.5046,170.064)">
            <circle cx="898.004" cy="684.429" r="5.292" style="fill:white;"/>
        </g>
        <g transform="matrix(2.06078,0,0,2.06078,-5032.2,-906.347)">
            <path d="M2672.06,749.915C2672.06,749.915 2669.05,760.475 2668.8,764.963C2668.58,768.959 2669.31,773.034 2670.54,776.841C2672.12,781.722 2679.07,790.475 2678.28,794.25C2677.07,800.091 2667.91,798.847 2667.91,798.847" style="fill:none;stroke:rgb(127,127,127);stroke-width:1.21px;"/>
        </g>
        <g transform="matrix(1.95243,0,0,1.95243,-4735.29,-809.041)">
            <path d="M2654.96,784.897C2654.96,784.897 2652.55,787.83 2656.81,791.634" style="fill:none;stroke:rgb(127,127,127);stroke-width:1.17px;"/>
        </g>
        <g transform="matrix(1.83695,0,0,1.83695,-5095.51,260.849)">
            <path d="M3011.98,89.049C3042.66,55.837 3120.67,95.735 3130.56,140.56" style="fill:none;stroke:rgb(127,127,127);stroke-width:1.36px;"/>
        </g>
        <g transform="matrix(1.83695,0,0,1.83695,-4952.88,310.341)">
            <path d="M2823.02,168.687C2823.02,168.687 2821.72,179.665 2824.3,189.441C2828.36,204.872 2836.74,223.602 2834.68,239.354" style="fill:none;stroke:rgb(127,127,127);stroke-width:1.36px;"/>
        </g>
        <g transform="matrix(-1.83695,0,0,1.83695,5536.45,234.514)">
            <path d="M2785.78,146.929C2790.29,161.256 2804.16,172.945 2811.34,181.051C2826.96,198.695 2836.28,206.678 2836.61,242.705" style="fill:none;stroke:rgb(127,127,127);stroke-width:1.36px;"/>
        </g>
        <g transform="matrix(2.70871,0,0,2.70871,-2600.82,-4145.17)">
            <path d="M1083.14,1814.3C1083.14,1814.3 1086.89,1819.18 1093.94,1825.41" style="fill:none;stroke:rgb(127,127,127);stroke-width:0.92px;"/>
        </g>
        <g transform="matrix(2.70871,0,0,2.70871,-2525.39,-4412.73)">
            <path d="M1086.89,1810.94C1086.89,1810.94 1087.29,1826.93 1094.5,1834.23C1103.66,1843.5 1121.4,1847.39 1128.1,1845.86" style="fill:none;stroke:rgb(127,127,127);stroke-width:0.92px;"/>
        </g>
        <g transform="matrix(2.70871,0,0,2.70871,-2469.59,-4410.05)">
            <path d="M1082.43,1814.32C1082.43,1814.32 1085.98,1823.81 1093.19,1831.1C1098.81,1836.79 1108.97,1841.18 1117.52,1843.36C1122.91,1844.73 1133.54,1845.65 1139.57,1853.57" style="fill:none;stroke:rgb(127,127,127);stroke-width:0.92px;"/>
        </g>
        <g transform="matrix(2.70871,0,0,2.70871,-2423.85,-4410.05)">
            <path d="M1104.18,1809.95C1128.76,1814.96 1128.21,1847.1 1126.57,1853.57" style="fill:none;stroke:rgb(127,127,127);stroke-width:0.92px;"/>
        </g>
        <g transform="matrix(2.70871,0,0,2.70871,-2600.82,-4145.17)">
            <path d="M1100.83,1831.05C1107.17,1835.84 1115.12,1840.8 1124.5,1844.68C1124.5,1844.68 1127.93,1845.77 1129.57,1845.87C1131.17,1845.96 1134.34,1845.27 1134.34,1845.27C1134.34,1845.27 1175.54,1833.53 1184.08,1767.21" style="fill:none;stroke:rgb(127,127,127);stroke-width:0.92px;"/>
        </g>
        <g transform="matrix(1.83695,0,0,1.83695,-5321.2,200.44)">
            <path d="M3023.53,217.355C3026.13,150.802 3096.7,92.778 3127.41,129.957C3129.83,132.885 3130.51,135.229 3130.56,140.56" style="fill:none;stroke:rgb(127,127,127);stroke-width:1.36px;"/>
        </g>
        <g transform="matrix(1.83695,0,0,1.83695,-4952.88,310.341)">
            <path d="M2833.67,246.297C2833.67,246.297 2829.97,292.763 2835.17,329.257" style="fill:none;stroke:rgb(127,127,127);stroke-width:1.36px;"/>
        </g>
        <g transform="matrix(1.83695,0,0,1.83695,-4933.26,333.781)">
            <path d="M2837.38,228.582C2841.38,242.649 2835.27,258.063 2834,269.605C2831.97,287.943 2831.18,288.722 2832.75,309.541" style="fill:none;stroke:rgb(127,127,127);stroke-width:1.36px;"/>
        </g>
        <g transform="matrix(1.83695,0,0,1.83695,-4907.88,333.781)">
            <path d="M2836.38,241.216C2838.25,255.703 2836.02,269.85 2834.81,283.584C2833.49,298.584 2830.86,304.491 2828.59,316.497" style="fill:none;stroke:rgb(127,127,127);stroke-width:1.36px;"/>
        </g>
        <g transform="matrix(1.83695,0,0,1.83695,-4885.68,333.781)">
            <path d="M2841.01,205.099C2840.6,214.016 2842.35,224.53 2840.78,240.039C2839.77,250.063 2841.8,262.015 2840.36,273.441C2838.31,289.688 2835.12,284.83 2831.89,298.187C2829.74,307.088 2816.18,326.681 2816.51,325.223" style="fill:none;stroke:rgb(127,127,127);stroke-width:1.36px;"/>
        </g>
        <g transform="matrix(1.83695,0,0,1.83695,-4952.88,310.341)">
            <path d="M3055.39,125.193C3055.39,125.193 3064.32,150.986 3056.2,173.027C3049.04,192.474 3036.91,225.622 3027.81,259.853C3025.87,267.161 3015.09,260.502 3011.99,261.935" style="fill:none;stroke:rgb(127,127,127);stroke-width:1.36px;"/>
        </g>
        <g transform="matrix(1.83695,0,0,1.83695,-4952.88,310.341)">
            <path d="M3018.1,243.851C3018.1,243.851 3007.43,253.577 3011.77,264.852C3016.11,276.127 3009.45,278.17 3007.12,280.628" style="fill:none;stroke:rgb(127,127,127);stroke-width:1.36px;"/>
        </g>
        <g transform="matrix(1.83695,0,0,1.83695,-4952.88,310.341)">
            <path d="M2878.03,87.373C2878.03,87.373 2859.36,100.814 2856.46,111.369" style="fill:none;stroke:rgb(127,127,127);stroke-width:1.36px;"/>
        </g>
        <g transform="matrix(1.83695,0,0,1.83695,-4954.01,299.343)">
            <path d="M2999.35,281.746C2999.35,281.746 2997.6,285.693 2999.19,288.822C3000.78,291.95 2998.53,303.632 2996.49,309.703" style="fill:none;stroke:rgb(127,127,127);stroke-width:1.36px;"/>
        </g>
        <g transform="matrix(1.83695,0,0,1.83695,-4912.45,294.542)">
            <path d="M3000.95,272.007C3000.95,272.007 3000.76,285.157 3001.63,289.47C3003.26,297.482 2977.53,300.378 2975.49,306.45" style="fill:none;stroke:rgb(127,127,127);stroke-width:1.36px;"/>
        </g>
        <g transform="matrix(1.83695,0,0,1.83695,-4952.88,310.341)">
            <path d="M2885.08,301.652C2885.37,300.095 2887.03,296.306 2888.16,292.587C2889.83,287.094 2890.96,279.726 2889.75,263.407" style="fill:none;stroke:rgb(127,127,127);stroke-width:1.36px;"/>
        </g>
        <g transform="matrix(-1.83695,0,0,1.83695,5849.87,319.444)">
            <path d="M2893.41,293.182C2893.41,293.182 2897.82,285.232 2891.76,265.456" style="fill:none;stroke:rgb(127,127,127);stroke-width:1.36px;"/>
        </g>
        <g transform="matrix(1.83695,0,0,1.83695,-4880.45,112.501)">
            <path d="M2847.26,402.004L2843.78,402.075L2834.97,407.718" style="fill:none;stroke:rgb(127,127,127);stroke-width:1.47px;"/>
        </g>
        <g transform="matrix(-1.83695,0,0,1.83695,5757.65,119.728)">
            <path d="M2842.86,402.129L2834.74,407.483" style="fill:none;stroke:rgb(127,127,127);stroke-width:1.47px;"/>
        </g>
        <g transform="matrix(1.83695,0,0,1.83695,-4880.45,112.501)">
            <path d="M2834.97,407.718L2863.85,431.958L2873.27,434.926L2868.81,445.911L2869.24,456.198L2849.3,450.502L2837.83,436.645L2830.23,425.827C2828.2,421.223 2828.19,415.819 2834.97,407.718Z" style="fill:none;stroke:rgb(127,127,127);stroke-width:1.47px;"/>
        </g>
        <g transform="matrix(-1.83695,0,0,1.83695,5782.52,94.8424)">
            <path d="M2848.28,421.03L2866.66,436.261L2877.22,444.259L2866.66,459.064L2857.39,453.978L2846.95,450.871L2842.32,437.342L2848.28,421.03Z" style="fill:none;stroke:rgb(127,127,127);stroke-width:1.47px;"/>
        </g>
        <g transform="matrix(1.83695,0,0,1.83695,-3997.77,83.9778)">
            <path d="M2389.98,459.892C2401.21,470.018 2393.26,474.891 2424.63,473.683C2431.79,473.408 2438.71,473.396 2444.91,469.84C2446.99,468.646 2452.32,461.731 2454.2,461.238" style="fill:none;stroke:rgb(127,127,127);stroke-width:1.47px;"/>
        </g>
        <g transform="matrix(1.83695,0,0,1.83695,-3997.77,83.9778)">
            <path d="M2481.88,443.257C2488.11,443.768 2500.56,444.792 2508.7,446.599C2516.25,448.278 2525.86,452.16 2530.67,454.1" style="fill:none;stroke:rgb(127,127,127);stroke-width:1.47px;"/>
        </g>
        <g transform="matrix(-1.83695,0,0,1.83695,4875.45,81.7865)">
            <path d="M2516.34,448.678C2520.78,450.883 2524.47,451.473 2528.91,453.678C2532.79,455.609 2537.44,459.155 2541.32,461.085" style="fill:none;stroke:rgb(127,127,127);stroke-width:1.47px;"/>
        </g>
    </g>
</svg>
