<?xml version="1.0" encoding="UTF-8" standalone="no"?>
<!DOCTYPE svg PUBLIC "-//W3C//DTD SVG 1.1//EN" "http://www.w3.org/Graphics/SVG/1.1/DTD/svg11.dtd">
<svg width="100%" height="100%" viewBox="0 0 527 550" version="1.1" xmlns="http://www.w3.org/2000/svg" xmlns:xlink="http://www.w3.org/1999/xlink" xml:space="preserve" xmlns:serif="http://www.serif.com/" style="fill-rule:evenodd;clip-rule:evenodd;stroke-linecap:round;stroke-linejoin:round;stroke-miterlimit:1.5;">
    <g transform="matrix(1,0,0,1,-2164.08,-943.322)">
        <g transform="matrix(0.617585,0,0,0.617585,1817.72,734.618)">
            <circle cx="898.004" cy="684.429" r="5.292" style="fill:white;"/>
        </g>
        <g transform="matrix(1.21914,0.025129,-0.025129,1.21914,-458.148,243.516)">
            <path d="M2393.04,828.89C2391.96,828.11 2395.04,826.48 2396.45,826.378C2398.26,826.247 2401.59,827.998 2403.87,828.105C2405.99,828.205 2408.37,826.832 2410.13,827.024C2411.74,827.199 2415.63,828.582 2414.43,829.256C2413.24,829.929 2406.5,831.123 2402.93,831.063C2399.56,831.005 2394.12,829.671 2393.04,828.89Z" style="fill:rgb(127,127,127);"/>
        </g>
        <g transform="matrix(1.7225,0.0355043,-0.0355043,1.7225,-1665.7,-204.802)">
            <path d="M2404.71,822.147C2402.84,822.343 2400.2,822.332 2397.29,822.229C2390.89,822.002 2383.23,821.325 2379.74,821.349C2379.34,821.352 2379.01,821.679 2379.01,822.08C2379.02,822.48 2379.35,822.803 2379.75,822.8C2383.23,822.776 2390.86,823.453 2397.24,823.679C2400.23,823.785 2402.95,823.791 2404.86,823.59C2405.26,823.548 2405.55,823.19 2405.51,822.792C2405.46,822.394 2405.11,822.105 2404.71,822.147Z" style="fill:rgb(127,127,127);"/>
        </g>
        <g transform="matrix(-1.7225,-0.0355043,-0.0355043,1.7225,6632.27,-33.4128)">
            <path d="M2399.14,822.152C2399.14,822.152 2395.43,822.754 2391.52,821.725" style="fill:none;stroke:rgb(127,127,127);stroke-width:1.45px;"/>
        </g>
        <g transform="matrix(-2.05584,0,0,2.05584,4387.72,-229.271)">
            <path d="M997.049,676.418C991.517,675.766 988.259,673.203 979.335,673.622C976.91,673.736 966.529,672.168 966.976,677.805" style="fill:none;stroke:rgb(127,127,127);stroke-width:1.22px;"/>
        </g>
        <g transform="matrix(-2.05584,0,0,2.05584,4537.91,-229.271)">
            <path d="M997.049,676.418C991.517,675.766 988.259,673.203 979.335,673.622C976.91,673.736 966.529,672.168 966.976,677.805" style="fill:none;stroke:rgb(127,127,127);stroke-width:1.22px;"/>
        </g>
        <g transform="matrix(-1.81848,0,0,1.81848,4157.28,-94.3025)">
            <path d="M980.407,675.919C978.708,676.004 971.962,679.355 969.214,678.028" style="fill:none;stroke:rgb(127,127,127);stroke-width:1.37px;stroke-linecap:butt;"/>
        </g>
        <g transform="matrix(-1.81848,0,0,1.81848,4314.35,-94.3025)">
            <path d="M991.833,678.028C985.594,677.293 985.987,675.607 978.759,675.969" style="fill:none;stroke:rgb(127,127,127);stroke-width:1.37px;stroke-linecap:butt;"/>
        </g>
        <g transform="matrix(2.58645,0,0,2.58645,51.7171,-605.766)">
            <path d="M898.323,680.898C901.244,680.898 903.296,681.508 903.296,684.429C903.296,687.35 900.925,689.721 898.004,689.721C895.083,689.721 892.712,687.35 892.712,684.429C892.712,681.508 895.402,680.898 898.323,680.898Z" style="fill:rgb(127,127,127);"/>
        </g>
        <g transform="matrix(2.58645,0,0,2.58645,201.91,-605.766)">
            <path d="M898.323,680.898C901.244,680.898 903.296,681.508 903.296,684.429C903.296,687.35 900.925,689.721 898.004,689.721C895.083,689.721 892.712,687.35 892.712,684.429C892.712,681.508 895.402,680.898 898.323,680.898Z" style="fill:rgb(127,127,127);"/>
        </g>
        <g transform="matrix(0.698196,0,0,0.698196,1753.94,683.468)">
            <circle cx="898.004" cy="684.429" r="5.292" style="fill:white;"/>
        </g>
        <g transform="matrix(0.698196,0,0,0.698196,1904.13,683.468)">
            <circle cx="898.004" cy="684.429" r="5.292" style="fill:white;"/>
        </g>
        <g transform="matrix(2.06078,0,0,2.06078,-3045.21,-392.943)">
            <path d="M2665.27,749.682C2665.27,749.682 2672.2,760.05 2673.76,765.166C2675.25,770.025 2673.9,775.535 2674.65,780.382C2675.39,785.104 2679.07,790.475 2678.28,794.25C2677.07,800.091 2667.91,798.847 2667.91,798.847" style="fill:none;stroke:rgb(127,127,127);stroke-width:1.21px;"/>
        </g>
        <g transform="matrix(1.95243,0,0,1.95243,-2748.3,-295.637)">
            <path d="M2655.47,786.746C2655.47,786.746 2652.55,787.83 2656.81,791.634" style="fill:none;stroke:rgb(127,127,127);stroke-width:1.39px;"/>
        </g>
        <g transform="matrix(1.83695,0,0,1.83695,-3108.52,774.253)">
            <path d="M3014.44,107.433C3028.62,92.491 3060.61,100.624 3068.6,110.099" style="fill:none;stroke:rgb(127,127,127);stroke-width:1.36px;"/>
        </g>
        <g transform="matrix(1.83695,0,0,1.83695,-3137.75,758.882)">
            <path d="M3025.93,111.674C3040.11,96.731 3027.64,100.102 3023.64,106.617" style="fill:none;stroke:rgb(127,127,127);stroke-width:1.36px;"/>
        </g>
        <g transform="matrix(-1.83695,0,0,1.83695,7523.43,747.918)">
            <path d="M2781.15,147.539C2785.66,161.865 2799.28,176.55 2809.1,181.112C2816.38,184.494 2830.36,185.457 2834.42,191.416C2839.26,198.496 2842.77,207.635 2848.55,213.222" style="fill:none;stroke:rgb(127,127,127);stroke-width:1.36px;"/>
        </g>
        <g transform="matrix(2.70871,0,0,2.70871,-613.833,-3631.77)">
            <path d="M1077.2,1784.47C1078.35,1789.89 1080.57,1793.23 1082.46,1800.57C1084.32,1807.81 1090.5,1819.23 1093.59,1821.99" style="fill:none;stroke:rgb(127,127,127);stroke-width:0.92px;"/>
        </g>
        <g transform="matrix(2.70871,0,0,2.70871,-538.408,-3899.32)">
            <path d="M1086.89,1810.94C1086.89,1810.94 1091.96,1817.87 1099.17,1825.16C1108.34,1834.43 1115.88,1834.6 1122.83,1828.46" style="fill:none;stroke:rgb(127,127,127);stroke-width:0.92px;"/>
        </g>
        <g transform="matrix(2.70871,0,0,2.70871,-482.604,-3896.64)">
            <path d="M1082.43,1814.32C1082.43,1814.32 1091.29,1824.93 1101.48,1826.18C1107.18,1826.88 1112.42,1831.99 1120.98,1834.17C1126.36,1835.55 1134.96,1846.81 1134.04,1861.34" style="fill:none;stroke:rgb(127,127,127);stroke-width:0.92px;"/>
        </g>
        <g transform="matrix(2.70871,0,0,2.70871,-436.87,-3896.64)">
            <path d="M1077.08,1797.38C1081.77,1798.34 1097.44,1801.74 1105.32,1806.31C1114.25,1811.49 1117.98,1820.28 1119.9,1824.85C1125.16,1837.41 1120.87,1849.74 1119.9,1853.57" style="fill:none;stroke:rgb(127,127,127);stroke-width:0.92px;"/>
        </g>
        <g transform="matrix(2.70871,0,0,2.70871,-613.833,-3631.77)">
            <path d="M1099.09,1827.06C1105.42,1831.85 1111.27,1837.9 1116.68,1840.78C1121.18,1843.18 1127.17,1844.17 1131.57,1844.37C1135.48,1844.55 1140.08,1844.51 1143.07,1841.98C1148.59,1837.33 1155.66,1827.69 1164.69,1816.47C1172.44,1806.85 1173.09,1801.62 1178.31,1772.56C1178.86,1769.54 1178.81,1751.57 1177.35,1743.85" style="fill:none;stroke:rgb(127,127,127);stroke-width:0.92px;"/>
        </g>
        <g transform="matrix(1.83695,0,0,1.83695,-3334.22,713.844)">
            <path d="M3045.78,223.361C3034.66,176.404 3079.07,123.708 3117.23,139.517C3120.74,140.971 3130.51,135.229 3130.56,140.56" style="fill:none;stroke:rgb(127,127,127);stroke-width:1.36px;"/>
        </g>
        <g transform="matrix(1.83695,0,0,1.83695,-2965.89,823.745)">
            <path d="M2869.62,105.65C2869.62,105.65 2863.55,108.341 2860.65,118.897" style="fill:none;stroke:rgb(127,127,127);stroke-width:1.36px;"/>
        </g>
        <g transform="matrix(1.83695,0,0,1.83695,-2965.89,823.745)">
            <path d="M2797.53,339.179C2797.97,338.921 2813.56,334.938 2816.78,332.669C2822.71,328.482 2831.56,322.35 2836.69,319.721C2847.15,314.358 2853.25,311.838 2860.46,309.558" style="fill:none;stroke:rgb(127,127,127);stroke-width:1.36px;"/>
        </g>
        <g transform="matrix(1.83695,0,0,1.83695,-2965.89,823.745)">
            <path d="M2875.37,294.152C2876.8,283.966 2881.81,263.885 2880.82,245.285C2880.73,243.553 2880.59,241.835 2880.38,240.138" style="fill:none;stroke:rgb(127,127,127);stroke-width:1.36px;"/>
        </g>
        <g transform="matrix(-1.83695,0,0,1.83695,7836.86,832.848)">
            <path d="M2805.11,340.149C2806.78,338.388 2826.17,333.397 2829.6,331.265C2842.29,323.371 2863.93,313.998 2871.82,310.978" style="fill:none;stroke:rgb(127,127,127);stroke-width:1.36px;"/>
        </g>
        <g transform="matrix(-1.83695,0,0,1.83695,7848.93,821.962)">
            <path d="M2811.68,346.076C2812.04,345.691 2806.67,339.183 2809.66,338.497C2815.37,337.188 2823.99,335.5 2828.4,334.08C2832.26,332.837 2838.41,328.717 2839.66,327.94C2847.09,323.314 2847.54,321.507 2856.56,317.441C2862.93,314.568 2863.78,317.323 2865.24,322.424" style="fill:none;stroke:rgb(127,127,127);stroke-width:1.36px;"/>
        </g>
        <g transform="matrix(1.83695,0,0,1.83695,-2994.48,811.399)">
            <path d="M2813.09,345.9C2813.45,345.515 2806.67,339.183 2809.66,338.497C2815.37,337.188 2823.12,334.676 2827.53,333.256C2831.39,332.013 2836.38,328.952 2837.63,328.174C2845.06,323.549 2845.94,321.054 2854.96,316.989C2861.33,314.116 2863.09,315.452 2864.54,320.554" style="fill:none;stroke:rgb(127,127,127);stroke-width:1.36px;"/>
        </g>
        <g transform="matrix(-1.83695,0,0,1.83695,7836.86,832.848)">
            <path d="M2882.77,296.827C2883.17,294.717 2883.38,293.735 2883.87,290.737C2885.05,283.549 2888.92,270.211 2889.47,256.194" style="fill:none;stroke:rgb(127,127,127);stroke-width:1.36px;"/>
        </g>
        <g transform="matrix(1.83384,-0.106858,0.106858,1.83384,-2931.93,911.765)">
            <path d="M2834.26,296.815C2834.26,296.815 2828.13,281.503 2823.44,284.966C2818.74,288.43 2817.42,297.187 2817.33,302.442C2817.24,307.478 2822.89,316.491 2822.89,316.491C2821.41,321.806 2821.84,332.242 2825.66,336.072C2825.66,336.072 2831.25,338.824 2833.18,337.683C2835.12,336.542 2837.27,329.227 2837.27,329.227" style="fill:none;stroke:rgb(127,127,127);stroke-width:1.36px;"/>
        </g>
        <g transform="matrix(1.83384,-0.106858,0.106858,1.83384,-2931.93,911.765)">
            <path d="M2827.8,299.405C2827.8,299.405 2831.45,307.509 2830.97,311.22C2830.48,314.93 2830.97,317.217 2830.97,317.217" style="fill:none;stroke:rgb(127,127,127);stroke-width:1.36px;"/>
        </g>
        <g transform="matrix(1.83384,-0.106858,0.106858,1.83384,-2931.93,911.765)">
            <path d="M2823.8,306.095C2824.61,307.396 2824.83,307.493 2826.83,308.311" style="fill:none;stroke:rgb(127,127,127);stroke-width:1.36px;"/>
        </g>
        <g transform="matrix(1.83695,0,0,1.83695,-2911.36,597.382)">
            <path d="M2838.82,423.211L2845.18,418.039L2827.79,418.039" style="fill:none;stroke:rgb(127,127,127);stroke-width:1.47px;"/>
        </g>
        <g transform="matrix(-1.83695,0,0,1.83695,7761.31,622.267)">
            <path d="M2842.36,407.078L2834.97,407.313" style="fill:none;stroke:rgb(127,127,127);stroke-width:1.47px;"/>
        </g>
        <g transform="matrix(1.83695,0,0,1.83695,-2911.36,597.382)">
            <path d="M2827.79,418.039L2866.66,436.261L2877.22,444.259L2866.26,453.747L2864.85,468.333L2842.03,450.875L2832.78,435.682C2830.76,431.079 2821.02,426.139 2827.79,418.039Z" style="fill:none;stroke:rgb(127,127,127);stroke-width:1.47px;"/>
        </g>
        <g transform="matrix(-1.83695,0,0,1.83695,7786.18,597.382)">
            <path d="M2848.28,421.03L2873.01,435.284L2890.95,445.251L2881.49,455.547L2880.26,468.333L2847.89,442.641L2842.32,437.342L2848.28,421.03Z" style="fill:none;stroke:rgb(127,127,127);stroke-width:1.47px;"/>
        </g>
        <g transform="matrix(1.83695,0,0,1.83695,-2911.36,597.382)">
            <path d="M2875.24,447.207C2875.71,449.341 2878.13,449.945 2879.46,452.246C2880.47,453.985 2870.5,464.864 2870.5,464.864L2882.75,468.333L2905.03,486.681L2927.92,468.333L2937.5,466.77C2937.5,466.77 2935.43,459.884 2932.59,455.963C2931.11,453.918 2936.9,451.688 2937.26,450.333" style="fill:none;stroke:rgb(127,127,127);stroke-width:1.47px;"/>
        </g>
        <g transform="matrix(1.7791,-0.457355,0.457355,1.7791,-3391.37,2070.07)">
            <ellipse cx="3111.78" cy="319.208" rx="2.118" ry="4.059" style="fill:white;stroke:rgb(106,130,191);stroke-width:1.25px;"/>
        </g>
    </g>
</svg>
